<svg width="21" height="20" viewBox="0 0 21 20" fill="none" xmlns="http://www.w3.org/2000/svg">
<path d="M19.47 2.005H15.375V0.445C15.375 0.33775 15.2872 0.25 15.18 0.25H13.815C13.7077 0.25 13.62 0.33775 13.62 0.445V2.005H7.38V0.445C7.38 0.33775 7.29225 0.25 7.185 0.25H5.82C5.71275 0.25 5.625 0.33775 5.625 0.445V2.005H1.53C1.09856 2.005 0.75 2.35356 0.75 2.785V18.97C0.75 19.4014 1.09856 19.75 1.53 19.75H19.47C19.9014 19.75 20.25 19.4014 20.25 18.97V2.785C20.25 2.35356 19.9014 2.005 19.47 2.005ZM18.495 17.995H2.505V8.7325H18.495V17.995ZM2.505 7.075V3.76H5.625V4.93C5.625 5.03725 5.71275 5.125 5.82 5.125H7.185C7.29225 5.125 7.38 5.03725 7.38 4.93V3.76H13.62V4.93C13.62 5.03725 13.7077 5.125 13.815 5.125H15.18C15.2872 5.125 15.375 5.03725 15.375 4.93V3.76H18.495V7.075H2.505Z" fill="#3E3E3D"/>
</svg>
