<svg width="21" height="20" viewBox="0 0 21 20" fill="none" xmlns="http://www.w3.org/2000/svg">
<path d="M19.7075 1.7072C20.0981 1.31672 20.0982 0.683558 19.7077 0.292984C19.3172 -0.0975899 18.684 -0.0976704 18.2935 0.292804L10.0002 8.58393L1.70702 0.292803C1.31644 -0.0976713 0.683278 -0.0975908 0.292803 0.292983C-0.097671 0.683557 -0.0975909 1.31672 0.292983 1.7072L8.58632 9.99842L0.293914 18.2887C-0.0966594 18.6792 -0.0967399 19.3124 0.293735 19.7029C0.684209 20.0935 1.31737 20.0936 1.70795 19.7031L10.0012 11.412L18.2944 19.7031C18.685 20.0936 19.3181 20.0935 19.7086 19.7029C20.0991 19.3124 20.099 18.6792 19.7084 18.2887L11.4151 9.99749L19.7075 1.7072Z" fill="#656564"/>
</svg>
