<svg width="16" height="28" viewBox="0 0 16 28" fill="none" xmlns="http://www.w3.org/2000/svg">
<path fill-rule="evenodd" clip-rule="evenodd" d="M4.52409 17.0507C5.36768 18.0077 6.51129 18.5459 7.7041 18.5474C8.8969 18.5459 10.0405 18.0077 10.8841 17.0507C11.7277 16.0938 12.2024 14.7962 12.2041 13.4427V5.65387C12.2041 4.29954 11.73 3.00068 10.8861 2.04303C10.0422 1.08537 8.89757 0.547363 7.7041 0.547363C6.51062 0.547363 5.36603 1.08537 4.52212 2.04303C3.6782 3.00068 3.2041 4.29954 3.2041 5.65387V13.4427C3.2058 14.7962 3.6805 16.0938 4.52409 17.0507ZM5.44513 2.76015C6.06807 2.13324 6.87148 1.7864 7.7041 1.78492C8.53852 1.78528 9.34392 2.13255 9.96801 2.76106C10.5921 3.38958 10.9917 4.25579 11.0911 5.19592H9.80997C9.73588 5.19137 9.66174 5.20399 9.59209 5.23303C9.52244 5.26207 9.45874 5.30691 9.40487 5.36481C9.351 5.42272 9.30809 5.49248 9.27877 5.56983C9.24945 5.64718 9.23432 5.7305 9.23432 5.8147C9.23432 5.89891 9.24945 5.98223 9.27877 6.05958C9.30809 6.13693 9.351 6.20669 9.40487 6.26459C9.45874 6.3225 9.52244 6.36734 9.59209 6.39638C9.66174 6.42542 9.73588 6.43804 9.80997 6.43348H11.1055V7.68921H9.80997C9.73588 7.68465 9.66174 7.69728 9.59209 7.72632C9.52244 7.75536 9.45874 7.80019 9.40487 7.8581C9.351 7.91601 9.30809 7.98577 9.27877 8.06312C9.24945 8.14047 9.23432 8.22379 9.23432 8.30799C9.23432 8.39219 9.24945 8.47552 9.27877 8.55287C9.30809 8.63022 9.351 8.69997 9.40487 8.75788C9.45874 8.81579 9.52244 8.86063 9.59209 8.88967C9.66174 8.9187 9.73588 8.93133 9.80997 8.92677H11.1055V10.1825H9.80997C9.73588 10.1779 9.66174 10.1906 9.59209 10.2196C9.52244 10.2486 9.45874 10.2935 9.40487 10.3514C9.351 10.4093 9.30809 10.4791 9.27877 10.5564C9.24945 10.6338 9.23432 10.7171 9.23432 10.8013C9.23432 10.8855 9.24945 10.9688 9.27877 11.0462C9.30809 11.1235 9.351 11.1933 9.40487 11.2512C9.45874 11.3091 9.52244 11.3539 9.59209 11.383C9.66174 11.412 9.73588 11.4246 9.80997 11.4201H11.1055V12.6758H9.80997C9.73588 12.6712 9.66174 12.6838 9.59209 12.7129C9.52244 12.7419 9.45874 12.7868 9.40487 12.8447C9.351 12.9026 9.30809 12.9723 9.27877 13.0497C9.24945 13.127 9.23432 13.2104 9.23432 13.2946C9.23432 13.3788 9.24945 13.4621 9.27877 13.5394C9.30809 13.6168 9.351 13.6865 9.40487 13.7445C9.45874 13.8024 9.52244 13.8472 9.59209 13.8762C9.66174 13.9053 9.73588 13.9179 9.80997 13.9133H11.0863C10.9875 14.8525 10.5887 15.7179 9.96539 16.3458C9.34209 16.9736 8.53755 17.3204 7.7041 17.3204C6.87064 17.3204 6.06611 16.9736 5.44281 16.3458C4.81951 15.7179 4.4207 14.8525 4.32189 13.9133H5.59023C5.66432 13.9179 5.73845 13.9053 5.8081 13.8762C5.87776 13.8472 5.94145 13.8024 5.99532 13.7445C6.04919 13.6865 6.0921 13.6168 6.12142 13.5394C6.15074 13.4621 6.16586 13.3788 6.16586 13.2946C6.16586 13.2104 6.15074 13.127 6.12142 13.0497C6.0921 12.9723 6.04919 12.9026 5.99532 12.8447C5.94145 12.7868 5.87776 12.7419 5.8081 12.7129C5.73845 12.6838 5.66432 12.6712 5.59023 12.6758H4.29467V11.4128H5.59023C5.66432 11.4173 5.73845 11.4047 5.8081 11.3757C5.87776 11.3466 5.94145 11.3018 5.99532 11.2439C6.04919 11.186 6.0921 11.1162 6.12142 11.0389C6.15074 10.9615 6.16586 10.8782 6.16586 10.794C6.16586 10.7098 6.15074 10.6265 6.12142 10.5491C6.0921 10.4718 6.04919 10.402 5.99532 10.3441C5.94145 10.2862 5.87776 10.2414 5.8081 10.2123C5.73845 10.1833 5.66432 10.1707 5.59023 10.1752H4.29467V8.9195H5.59023C5.66432 8.92406 5.73845 8.91143 5.8081 8.88239C5.87776 8.85336 5.94145 8.80852 5.99532 8.75061C6.04919 8.6927 6.0921 8.62295 6.12142 8.5456C6.15074 8.46825 6.16586 8.38492 6.16586 8.30072C6.16586 8.21652 6.15074 8.1332 6.12142 8.05585C6.0921 7.9785 6.04919 7.90874 5.99532 7.85083C5.94145 7.79293 5.87776 7.74809 5.8081 7.71905C5.73845 7.69001 5.66432 7.67738 5.59023 7.68194H4.29467V6.42621H5.59023C5.66432 6.43077 5.73845 6.41815 5.8081 6.38911C5.87776 6.36007 5.94145 6.31523 5.99532 6.25732C6.04919 6.19942 6.0921 6.12966 6.12142 6.05231C6.15074 5.97496 6.16586 5.89164 6.16586 5.80743C6.16586 5.72323 6.15074 5.63991 6.12142 5.56256C6.0921 5.48521 6.04919 5.41545 5.99532 5.35755C5.94145 5.29964 5.87776 5.2548 5.8081 5.22576C5.73845 5.19672 5.66432 5.1841 5.59023 5.18865H4.32189C4.4227 4.25076 4.82219 3.38706 5.44513 2.76015Z" fill="#3E3E3D"/>
<path d="M1.17383 7.72655C1.06729 7.6118 0.922963 7.54736 0.772504 7.54736C0.622044 7.54736 0.477721 7.6118 0.371174 7.72655C0.264626 7.8413 0.204543 7.99699 0.204102 8.15951V13.1179C0.204968 15.1597 0.919564 17.1259 2.20492 18.6231C3.49028 20.1203 5.25162 21.038 7.13654 21.1928V26.3204H4.0862C4.00908 26.3159 3.93192 26.3284 3.85942 26.3571C3.78693 26.3859 3.72062 26.4303 3.66455 26.4877C3.60848 26.5451 3.56382 26.6142 3.5333 26.6908C3.50278 26.7675 3.48704 26.85 3.48704 26.9334C3.48704 27.0168 3.50278 27.0994 3.5333 27.176C3.56382 27.2527 3.60848 27.3218 3.66455 27.3791C3.72062 27.4365 3.78693 27.4809 3.85942 27.5097C3.93192 27.5385 4.00908 27.551 4.0862 27.5465H11.3237C11.4008 27.551 11.478 27.5385 11.5504 27.5097C11.6229 27.4809 11.6893 27.4365 11.7453 27.3791C11.8014 27.3218 11.8461 27.2527 11.8766 27.176C11.9071 27.0994 11.9228 27.0168 11.9228 26.9334C11.9228 26.85 11.9071 26.7675 11.8766 26.6908C11.8461 26.6142 11.8014 26.5451 11.7453 26.4877C11.6893 26.4303 11.6229 26.3859 11.5504 26.3571C11.478 26.3284 11.4008 26.3159 11.3237 26.3204H8.27166V21.1928C10.1566 21.038 11.9179 20.1203 13.2033 18.6231C14.4886 17.1259 15.2032 15.1597 15.2041 13.1179V8.15951C15.1962 8.00266 15.133 7.85504 15.0274 7.74702C14.9219 7.639 14.782 7.5788 14.6365 7.5788C14.4911 7.5788 14.3512 7.639 14.2457 7.74702C14.1401 7.85504 14.0768 8.00266 14.069 8.15951V13.1179C14.069 14.941 13.3985 16.6894 12.205 17.9785C11.0115 19.2677 9.39278 19.9919 7.70493 19.9919C6.01708 19.9919 4.39837 19.2677 3.20488 17.9785C2.01139 16.6894 1.3409 14.941 1.3409 13.1179V8.15951C1.34045 7.99699 1.28038 7.8413 1.17383 7.72655Z" fill="#3E3E3D"/>
</svg>
