<svg width="30" height="24" viewBox="0 0 30 24" fill="none" xmlns="http://www.w3.org/2000/svg">
<path fill-rule="evenodd" clip-rule="evenodd" d="M27.2893 2.12622L28.0468 1.15737C28.2462 0.945897 28.46 0.957901 28.5498 1.00765C28.5917 1.03087 28.6222 1.06674 28.6352 1.12616C28.6488 1.18916 28.6481 1.30975 28.5595 1.496L27.9038 2.56748L27.2893 2.12622ZM26.8116 2.73734L27.4981 3.23039L26.0783 5.5507L22.9102 7.27049L22.6521 7.4106L22.7172 7.69697L23.7011 12.0263L21.095 12.1492L18.919 8.79698L18.7552 8.54463L18.4701 8.64076L15.8607 9.52067H13.3008V8.96097H15.4587H15.5376L15.6103 8.93009L19.3354 7.34692L19.0322 6.63359L15.3798 8.18589H12.9133H6.36334H6.32172L6.28104 8.19473C6.12341 8.22898 5.89255 8.31024 5.69102 8.45497C5.48944 8.59974 5.26178 8.85211 5.26178 9.22528C5.26178 9.52129 5.32538 9.80257 5.51159 10.0111C5.5836 10.0918 5.665 10.1517 5.75118 10.1953L5.31652 12.2477L1.24538 13.5753L0.583618 13.791L1.11562 14.2399C1.26759 14.3681 1.5212 14.6051 1.77125 14.8864C2.02476 15.1716 2.25416 15.4797 2.37955 15.7513C2.51691 16.0489 2.74307 16.2406 3.04429 16.2752C3.29553 16.304 3.53473 16.2115 3.69385 16.1419C3.75924 16.1133 3.82641 16.0812 3.88542 16.053L3.93526 16.0292C4.00999 15.9938 4.06879 15.9675 4.11914 15.9495C4.13484 15.9439 4.14777 15.9398 4.15825 15.9368C4.20951 15.9834 4.27512 16.0534 4.3603 16.1509C4.39032 16.1853 4.42285 16.2232 4.45713 16.2631L4.45722 16.2632L4.45723 16.2632L4.45729 16.2632L4.45732 16.2633L4.45734 16.2633C4.53891 16.3583 4.63033 16.4647 4.72114 16.5626C4.85228 16.704 5.00519 16.8536 5.17434 16.9695C5.34224 17.0844 5.55659 17.1871 5.8046 17.1871C6.02339 17.1871 6.21819 17.1203 6.38115 17.0432C6.48194 16.9955 6.58136 16.9383 6.67374 16.8824V17.1871C6.6034 17.1871 6.55149 17.1676 6.53195 17.1596C6.5078 17.1498 6.49035 17.1397 6.48182 17.1345C6.4723 17.1287 6.46548 17.1238 6.462 17.1213C6.45827 17.1185 6.45592 17.1166 6.45521 17.1161C6.45511 17.116 6.45515 17.116 6.45532 17.1162L6.45536 17.1162L6.45537 17.1162C6.45669 17.1174 6.46412 17.1239 6.4795 17.1389C6.5136 17.1721 6.56507 17.2258 6.63432 17.3009C6.77158 17.4497 6.96411 17.6667 7.19836 17.9357C7.61671 18.416 8.16159 19.0543 8.74831 19.7476L7.43114 21.3324L7.28422 21.5091L7.36889 21.7228L7.81066 22.8378H7.16171L6.64746 21.4353L7.8136 19.9886L7.21017 19.5022L5.90639 21.1196L5.76876 21.2903L5.84426 21.4962L6.52718 23.3587L6.62037 23.6129H6.89104H8.38106H8.95147L8.74135 23.0826L8.17414 21.651L9.25626 20.349C10.1936 21.461 11.1715 22.6321 11.8701 23.473L11.9864 23.6129H12.1682H14.8068H16.0534L15.0265 22.9061L14.7295 22.7016L18.19 18.0875L17.57 17.6225L14.0905 22.2618L13.2899 21.7108L16.7127 16.3797L21.0348 12.928L23.8793 12.7938C23.9464 13.2461 23.8923 13.9496 23.353 14.4726C22.5314 15.2693 21.4972 16.2973 21.0827 16.7118L20.8822 16.9123L21.0126 17.164L23.2353 21.4572V23.024H21.333L22.1023 22.2206L22.2995 22.0146L22.1615 21.765L19.9051 17.685C19.8662 17.5843 19.818 17.2745 19.9855 16.7576C20.1554 16.2331 20.5404 15.5228 21.3302 14.6732L20.7625 14.1455C19.9132 15.059 19.46 15.8647 19.2481 16.5187C19.0404 17.1599 19.056 17.6877 19.2029 18.0141L19.2094 18.0286L19.2172 18.0426L21.3452 21.8906L20.1455 23.1436L19.5179 23.7991H20.4255H23.6228H24.0104V23.4116V21.3628V21.2684L23.967 21.1846L21.8314 17.0597C22.3203 16.5724 23.1862 15.714 23.8926 15.029C24.85 14.1006 24.7325 12.83 24.5553 12.2871L23.5381 7.81157L26.5394 6.18227L26.6308 6.13266L26.6851 6.04396L29.2306 1.88431L29.2399 1.86907L29.2478 1.85304C29.3988 1.54584 29.4531 1.24027 29.3926 0.961633C29.3309 0.677752 29.1569 0.45795 28.9255 0.329724C28.4701 0.0773193 27.8679 0.202912 27.465 0.644932L27.4551 0.655756L27.4461 0.667293L26.4301 1.96684L24.6436 4.25188L20.8937 5.85795L21.1989 6.57043L25.0402 4.9252L25.1316 4.88603L25.1929 4.80765L26.8116 2.73734ZM18.4327 9.47134L20.3748 12.4632L16.1792 15.8138L16.1293 15.8536L16.0949 15.9073L12.6611 21.2556L9.6383 17.0238C9.84722 16.9128 10.0221 16.7587 10.1606 16.605C10.3381 16.408 10.4785 16.1877 10.5791 15.9924C10.6403 15.9995 10.7041 16.0088 10.7709 16.0196C10.8214 16.0277 10.8767 16.0372 10.9344 16.0472L10.9344 16.0472C11.0447 16.0662 11.1632 16.0867 11.2708 16.1011C11.5994 16.1452 12.0326 16.169 12.3974 15.9015C12.6496 15.7165 12.8453 15.4349 12.9826 15.1926C13.124 14.9434 13.227 14.6936 13.2809 14.5319L13.3932 14.1951L13.0675 14.0538L10.4949 12.938L8.91033 12.2086L9.89065 10.2958H9.89426H9.90114H9.90803H9.91492H9.9218H9.92869H9.93558H9.94247H9.94936H9.95625H9.96314H9.97003H9.97692H9.98382H9.99071H9.9976H10.0045H10.0114H10.0183H10.0252H10.0321H10.039H10.0459H10.0528H10.0597H10.0666H10.0734H10.0803H10.0872H10.0941H10.101H10.1079H10.1148H10.1217H10.1286H10.1355H10.1424H10.1493H10.1562H10.1631H10.17H10.1769H10.1838H10.1907H10.1976H10.2045H10.2114H10.2183H10.2252H10.2321H10.239H10.2459H10.2528H10.2596H10.2665H10.2734H10.2803H10.2872H10.2941H10.301H10.3079H10.3148H10.3217H10.3286H10.3355H10.3423H10.3492H10.3561H10.363H10.3699H10.3768H10.3837H10.3905H10.3974H10.4043H10.4112H10.4181H10.425H10.4318H10.4387H10.4456H10.4525H10.4593H10.4662H10.4731H10.48H10.4868H10.4937H10.5006H10.5075H10.5143H10.5212H10.5281H10.5349H10.5418H10.5487H10.5555H10.5624H10.5692H10.5761H10.583H10.5898H10.5967H10.6035H10.6104H10.6172H10.6241H10.6309H10.6378H10.6446H10.6515H10.6583H10.6651H10.672H10.6788H10.6857H10.6925H10.6993H10.7062H10.713H10.7198H10.7267H10.7335H10.7403H10.7471H10.754H10.7608H10.7676H10.7744H10.7812H10.788H10.7948H10.8017H10.8085H10.8153H10.8221H10.8289H10.8357H10.8425H10.8493H10.8561H10.8629H10.8696H10.8764H10.8832H10.89H10.8968H10.9036H10.9103H10.9171H10.9239H10.9307H10.9374H10.9442H10.951H10.9577H10.9645H10.9712H10.978H10.9847H10.9915H10.9982H11.005H11.0117H11.0185H11.0252H11.032H11.0387H11.0454H11.0522H11.0589H11.0656H11.0723H11.079H11.0858H11.0925H11.0992H11.1059H11.1126H11.1193H11.126H11.1327H11.1394H11.1461H11.1528H11.1595H11.1661H11.1728H11.1795H11.1862H11.1929H11.1995H11.2062H11.2129H11.2195H11.2262H11.2328H11.2395H11.2461H11.2528H11.2594H11.266H11.2727H11.2793H11.2859H11.2926H11.2992H11.3058H11.3124H11.319H11.3257H11.3323H11.3389H11.3455H11.3521H11.3587H11.3653H11.3718H11.3784H11.385H11.3916H11.3982H11.4047H11.4113H11.4179H11.4244H11.431H11.4375H11.4441H11.4506H11.4572H11.4637H11.4702H11.4768H11.4833H11.4898H11.4963H11.5028H11.5093H11.5159H11.5224H11.5289H11.5354H11.5418H11.5483H11.5548H11.5613H11.5678H11.5742H11.5807H11.5872H11.5936H11.6001H11.6065H11.613H11.6194H11.6259H11.6323H11.6387H11.6452H11.6516H11.658H11.6644H11.6708H11.6772H11.6836H11.69H11.6964H11.7028H11.7092H11.7156H11.722H11.7283H11.7347H11.7411H11.7474H11.7538H11.7601H11.7665H11.7728H11.7791H11.7855H11.7918H11.7981H11.8044H11.8107H11.817H11.8233H11.8296H11.8359H11.8422H11.8485H11.8548H11.8611H11.8673H11.8736H11.8798H11.8861H11.8924H11.8986H11.9048H11.9111H11.9173H11.9235H11.9297H11.936H11.9422H11.9484H11.9546H11.9608H11.9669H11.9731H11.9793H11.9855H11.9916H11.9978H12.004H12.0101H12.0163H12.0224H12.0285H12.0347H12.0408H12.0469H12.053H12.0591H12.0652H12.0713H12.0774H12.0835H12.0896H12.0957H12.1017H12.1078H12.1139H12.1199H12.126H12.132H12.1381H12.1441H12.1501H12.1561H12.1621H12.1681H12.1742H12.1801H12.1861H12.1921H12.1981H12.2041H12.21H12.216H12.222H12.2279H12.2338H12.2398H12.2457H12.2516H12.2576H12.2635H12.2694H12.2753H12.2812H12.2871H12.2929H12.2988H12.3047H12.3106H12.3164H12.3223H12.3281H12.3339H12.3398H12.3456H12.3514H12.3572H12.363H12.3688H12.3746H12.3804H12.3862H12.392H12.3977H12.4035H12.4093H12.415H12.4208H12.4265H12.4322H12.4379H12.4437H12.4494H12.4551H12.4608H12.4665H12.4721H12.4778H12.4835H12.4891H12.4948H12.5004H12.5061H12.5117H12.5173H12.523H12.5286H12.5342H12.5398H12.5454H12.551H12.5565H12.5621H12.5677H12.5732H12.5788H12.5843H12.5899H12.5954H12.6009H12.6064H12.6119H12.6174H12.6229H12.6284H12.6339H12.6394H12.6448H12.6503H12.6557H12.6612H12.6666H12.672H12.6774H12.6829H12.6883H12.6937H12.699H12.7044H12.7098H12.7152H12.7205H12.7259H12.7312H12.7366H12.7419H12.7472H12.7525H12.7578H12.7631H12.7684H12.7737H12.779H12.7842H12.7895H12.7947H12.8H12.8052H12.8104H12.8157H12.8209H12.8261H12.8313H12.8365H12.8416H12.8468H12.852H12.8571H12.8623H12.8674H12.8725H12.8777H12.8828H12.8879H12.893H12.8981H12.9032H12.9082H12.9133H15.9243H15.9879L16.0482 10.2754L18.4327 9.47134ZM8.42636 17.1378C8.54984 17.1935 8.6836 17.2239 8.82649 17.2207L12.1012 21.8053L12.1408 21.8607L12.1968 21.8993L13.5603 22.8378H12.35C11.5829 21.9152 10.5252 20.6497 9.55004 19.4953C8.88358 18.7064 8.25455 17.9682 7.78283 17.4266C7.54733 17.1562 7.34898 16.9325 7.20403 16.7753C7.15742 16.7248 7.11477 16.6795 7.07719 16.6408C7.24113 16.5528 7.3758 16.5042 7.51188 16.5042C7.65174 16.5042 7.74174 16.5861 7.99081 16.8213C8.09448 16.9193 8.24117 17.0542 8.42636 17.1378ZM9.01971 10.2958L8.13743 12.0173L6.13348 12.1311L6.52217 10.2958H6.52597H6.53034H6.53473H6.53914H6.54359H6.54805H6.55255H6.55706H6.56161H6.56618H6.57077H6.57539H6.58003H6.5847H6.5894H6.59411H6.59886H6.60363H6.60842H6.61324H6.61808H6.62295H6.62784H6.63275H6.63769H6.64266H6.64765H6.65266H6.6577H6.66276H6.66784H6.67295H6.67808H6.68324H6.68842H6.69362H6.69885H6.7041H6.70938H6.71468H6.72H6.72534H6.73071H6.73611H6.74152H6.74696H6.75242H6.7579H6.76341H6.76894H6.77449H6.78007H6.78567H6.79129H6.79693H6.8026H6.80829H6.814H6.81974H6.82549H6.83127H6.83707H6.84289H6.84874H6.8546H6.86049H6.8664H6.87234H6.87829H6.88427H6.89027H6.89629H6.90233H6.90839H6.91447H6.92058H6.92671H6.93285H6.93902H6.94521H6.95143H6.95766H6.96391H6.97019H6.97648H6.9828H6.98914H6.99549H7.00187H7.00827H7.01469H7.02113H7.02759H7.03407H7.04057H7.0471H7.05364H7.0602H7.06678H7.07338H7.08H7.08665H7.09331H7.09999H7.10669H7.11341H7.12015H7.12691H7.13369H7.14049H7.14731H7.15414H7.161H7.16788H7.17477H7.18168H7.18862H7.19557H7.20254H7.20953H7.21654H7.22357H7.23061H7.23768H7.24476H7.25186H7.25898H7.26612H7.27328H7.28045H7.28765H7.29486H7.30209H7.30933H7.3166H7.32388H7.33118H7.3385H7.34584H7.3532H7.36057H7.36796H7.37537H7.38279H7.39023H7.39769H7.40517H7.41266H7.42017H7.4277H7.43525H7.44281H7.45039H7.45799H7.4656H7.47323H7.48088H7.48854H7.49622H7.50391H7.51163H7.51936H7.5271H7.53486H7.54264H7.55044H7.55825H7.56607H7.57392H7.58177H7.58965H7.59754H7.60544H7.61336H7.6213H7.62925H7.63722H7.64521H7.65321H7.66122H7.66925H7.6773H7.68536H7.69343H7.70152H7.70963H7.71775H7.72588H7.73404H7.7422H7.75038H7.75857H7.76678H7.77501H7.78325H7.7915H7.79977H7.80805H7.81634H7.82465H7.83298H7.84131H7.84967H7.85803H7.86641H7.87481H7.88321H7.89164H7.90007H7.90852H7.91698H7.92546H7.93395H7.94245H7.95097H7.9595H7.96804H7.97659H7.98516H7.99374H8.00234H8.01095H8.01957H8.0282H8.03685H8.04551H8.05418H8.06286H8.07156H8.08027H8.08899H8.09772H8.10647H8.11523H8.124H8.13278H8.14158H8.15038H8.1592H8.16803H8.17688H8.18573H8.1946H8.20347H8.21236H8.22126H8.23018H8.2391H8.24803H8.25698H8.26594H8.27491H8.28389H8.29288H8.30188H8.31089H8.31992H8.32895H8.338H8.34705H8.35612H8.3652H8.37429H8.38338H8.39249H8.40161H8.41074H8.41988H8.42903H8.43819H8.44736H8.45654H8.46573H8.47493H8.48414H8.49337H8.50259H8.51183H8.52108H8.53034H8.53961H8.54889H8.55817H8.56747H8.57678H8.58609H8.59542H8.60475H8.61409H8.62344H8.6328H8.64217H8.65155H8.66094H8.67033H8.67973H8.68915H8.69857H8.708H8.71743H8.72688H8.73634H8.7458H8.75527H8.76475H8.77424H8.78373H8.79323H8.80274H8.81226H8.82179H8.83132H8.84087H8.85042H8.85997H8.86954H8.87911H8.88869H8.89827H8.90787H8.91747H8.92708H8.93669H8.94632H8.95595H8.96558H8.97522H8.98487H8.99453H9.00419H9.01386H9.01971ZM2.1067 14.1096L5.72158 12.9309L8.30669 12.784L10.1747 13.6438L10.1747 13.6439L10.1826 13.6474L12.4108 14.6138C12.3803 14.6774 12.3461 14.7439 12.3084 14.8103C12.1897 15.0197 12.0593 15.1882 11.9391 15.2764C11.8382 15.3504 11.6816 15.3742 11.3738 15.3329C11.2785 15.3201 11.1884 15.3045 11.0898 15.2874L11.0896 15.2874L11.0895 15.2873L11.0894 15.2873C11.0285 15.2768 10.9645 15.2657 10.894 15.2543C10.7223 15.2267 10.5311 15.2014 10.3368 15.2014H10.0702L9.97487 15.4503C9.91114 15.6166 9.77429 15.8759 9.58479 16.0862C9.39183 16.3003 9.19321 16.412 9.00191 16.412H8.93902L8.87936 16.4319C8.81116 16.4547 8.77789 16.4461 8.74515 16.4313C8.6917 16.4072 8.62888 16.3578 8.52301 16.2579C8.50798 16.2437 8.4917 16.2278 8.47416 16.2108L8.47413 16.2108C8.29335 16.035 7.97864 15.7291 7.51188 15.7291C7.0638 15.7291 6.68883 15.9615 6.42738 16.1236L6.41915 16.1287L6.39259 16.1452L6.39253 16.1452C6.25993 16.2275 6.15371 16.2933 6.04966 16.3426C5.94199 16.3935 5.86518 16.412 5.8046 16.412C5.77324 16.412 5.71209 16.3983 5.61226 16.33C5.51367 16.2624 5.4066 16.1618 5.2894 16.0355C5.2088 15.9486 5.13408 15.8616 5.05716 15.772L5.05701 15.7718C5.02015 15.7289 4.98278 15.6854 4.94402 15.641C4.8354 15.5167 4.70812 15.3764 4.57814 15.2789C4.31306 15.0801 4.00979 15.1654 3.85813 15.2197C3.76878 15.2516 3.68013 15.2924 3.60353 15.3287L3.54268 15.3577C3.48632 15.3846 3.43558 15.4089 3.38319 15.4318C3.23254 15.4977 3.16128 15.5083 3.13289 15.5052C3.1272 15.5 3.10794 15.4799 3.08329 15.4265C2.91068 15.0525 2.62269 14.6776 2.35054 14.3715C2.26875 14.2795 2.18655 14.1916 2.1067 14.1096ZM12.5257 8.96097V9.52067H12.523H12.5173H12.5117H12.5061H12.5004H12.4948H12.4891H12.4835H12.4778H12.4721H12.4665H12.4608H12.4551H12.4494H12.4437H12.4379H12.4322H12.4265H12.4208H12.415H12.4093H12.4035H12.3977H12.392H12.3862H12.3804H12.3746H12.3688H12.363H12.3572H12.3514H12.3456H12.3398H12.3339H12.3281H12.3223H12.3164H12.3106H12.3047H12.2988H12.2929H12.2871H12.2812H12.2753H12.2694H12.2635H12.2576H12.2516H12.2457H12.2398H12.2338H12.2279H12.222H12.216H12.21H12.2041H12.1981H12.1921H12.1861H12.1801H12.1742H12.1681H12.1621H12.1561H12.1501H12.1441H12.1381H12.132H12.126H12.1199H12.1139H12.1078H12.1017H12.0957H12.0896H12.0835H12.0774H12.0713H12.0652H12.0591H12.053H12.0469H12.0408H12.0347H12.0285H12.0224H12.0163H12.0101H12.004H11.9978H11.9916H11.9855H11.9793H11.9731H11.9669H11.9608H11.9546H11.9484H11.9422H11.936H11.9297H11.9235H11.9173H11.9111H11.9048H11.8986H11.8924H11.8861H11.8798H11.8736H11.8673H11.8611H11.8548H11.8485H11.8422H11.8359H11.8296H11.8233H11.817H11.8107H11.8044H11.7981H11.7918H11.7855H11.7791H11.7728H11.7665H11.7601H11.7538H11.7474H11.7411H11.7347H11.7283H11.722H11.7156H11.7092H11.7028H11.6964H11.69H11.6836H11.6772H11.6708H11.6644H11.658H11.6516H11.6452H11.6387H11.6323H11.6259H11.6194H11.613H11.6065H11.6001H11.5936H11.5872H11.5807H11.5742H11.5678H11.5613H11.5548H11.5483H11.5418H11.5354H11.5289H11.5224H11.5159H11.5093H11.5028H11.4963H11.4898H11.4833H11.4768H11.4702H11.4637H11.4572H11.4506H11.4441H11.4375H11.431H11.4244H11.4179H11.4113H11.4047H11.3982H11.3916H11.385H11.3784H11.3718H11.3653H11.3587H11.3521H11.3455H11.3389H11.3323H11.3257H11.319H11.3124H11.3058H11.2992H11.2926H11.2859H11.2793H11.2727H11.266H11.2594H11.2528H11.2461H11.2395H11.2328H11.2262H11.2195H11.2129H11.2062H11.1995H11.1929H11.1862H11.1795H11.1728H11.1661H11.1595H11.1528H11.1461H11.1394H11.1327H11.126H11.1193H11.1126H11.1059H11.0992H11.0925H11.0858H11.079H11.0723H11.0656H11.0589H11.0522H11.0454H11.0387H11.032H11.0252H11.0185H11.0117H11.005H10.9982H10.9915H10.9847H10.978H10.9712H10.9645H10.9577H10.951H10.9442H10.9374H10.9307H10.9239H10.9171H10.9103H10.9036H10.8968H10.89H10.8832H10.8764H10.8696H10.8629H10.8561H10.8493H10.8425H10.8357H10.8289H10.8221H10.8153H10.8085H10.8017H10.7948H10.788H10.7812H10.7744H10.7676H10.7608H10.754H10.7471H10.7403H10.7335H10.7267H10.7198H10.713H10.7062H10.6993H10.6925H10.6857H10.6788H10.672H10.6651H10.6583H10.6515H10.6446H10.6378H10.6309H10.6241H10.6172H10.6104H10.6035H10.5967H10.5898H10.583H10.5761H10.5692H10.5624H10.5555H10.5487H10.5418H10.5349H10.5281H10.5212H10.5143H10.5075H10.5006H10.4937H10.4868H10.48H10.4731H10.4662H10.4593H10.4525H10.4456H10.4387H10.4318H10.425H10.4181H10.4112H10.4043H10.3974H10.3905H10.3837H10.3768H10.3699H10.363H10.3561H10.3492H10.3423H10.3355H10.3286H10.3217H10.3148H10.3079H10.301H10.2941H10.2872H10.2803H10.2734H10.2665H10.2596H10.2528H10.2459H10.239H10.2321H10.2252H10.2183H10.2114H10.2045H10.1976H10.1907H10.1838H10.1769H10.17H10.1631H10.1562H10.1493H10.1424H10.1355H10.1286H10.1217H10.1148H10.1079H10.101H10.0941H10.0872H10.0803H10.0734H10.0666H10.0597H10.0528H10.0459H10.039H10.0321H10.0252H10.0183H10.0114H10.0045H9.9976H9.99071H9.98382H9.97692H9.97003H9.96314H9.95625H9.94936H9.94247H9.93558H9.92869H9.9218H9.91492H9.90803H9.90114H9.89426H9.88737H9.88049H9.8736H9.86672H9.85984H9.85295H9.84607H9.83919H9.83231H9.82544H9.81856H9.81168H9.80481H9.79793H9.79106H9.78418H9.77731H9.77044H9.76357H9.7567H9.74983H9.74296H9.7361H9.72923H9.72237H9.71551H9.70865H9.70179H9.69493H9.68807H9.68121H9.67436H9.6675H9.66065H9.6538H9.64382H9.63385H9.62388H9.61391H9.60395H9.59399H9.58403H9.57408H9.56413H9.55418H9.54424H9.5343H9.52436H9.51443H9.5045H9.49457H9.48465H9.47473H9.46481H9.4549H9.44499H9.43509H9.42519H9.4153H9.40541H9.39552H9.38564H9.37576H9.36589H9.35602H9.34615H9.33629H9.32644H9.31659H9.30674H9.2969H9.28706H9.27723H9.26741H9.25758H9.24777H9.23796H9.22815H9.21835H9.20856H9.19877H9.18898H9.1792H9.16943H9.15966H9.1499H9.14014H9.13039H9.12065H9.11091H9.10118H9.09145H9.08173H9.07202H9.06231H9.05261H9.04291H9.03322H9.02354H9.01386H9.00419H8.99453H8.98487H8.97522H8.96558H8.95595H8.94632H8.93669H8.92708H8.91747H8.90787H8.89827H8.88869H8.87911H8.86954H8.85997H8.85042H8.84087H8.83132H8.82179H8.81226H8.80274H8.79323H8.78373H8.77424H8.76475H8.75527H8.7458H8.73634H8.72688H8.71743H8.708H8.69857H8.68915H8.67973H8.67033H8.66094H8.65155H8.64217H8.6328H8.62344H8.61409H8.60475H8.59542H8.58609H8.57678H8.56747H8.55817H8.54889H8.53961H8.53034H8.52108H8.51183H8.50259H8.49337H8.48414H8.47493H8.46573H8.45654H8.44736H8.43819H8.42903H8.41988H8.41074H8.40161H8.39249H8.38338H8.37429H8.3652H8.35612H8.34705H8.338H8.32895H8.31992H8.31089H8.30188H8.29288H8.28389H8.27491H8.26594H8.25698H8.24803H8.2391H8.23018H8.22126H8.21236H8.20347H8.1946H8.18573H8.17688H8.16803H8.1592H8.15038H8.14158H8.13278H8.124H8.11523H8.10647H8.09772H8.08899H8.08027H8.07156H8.06286H8.05418H8.04551H8.03685H8.0282H8.01957H8.01095H8.00234H7.99374H7.98516H7.97659H7.96804H7.9595H7.95097H7.94245H7.93395H7.92546H7.91698H7.90852H7.90007H7.89164H7.88321H7.87481H7.86641H7.85803H7.84967H7.84131H7.83298H7.82465H7.81634H7.80805H7.79977H7.7915H7.78325H7.77501H7.76678H7.75857H7.75038H7.7422H7.73404H7.72588H7.71775H7.70963H7.70152H7.69343H7.68536H7.6773H7.66925H7.66122H7.65321H7.64521H7.63722H7.62925H7.6213H7.61336H7.60544H7.59754H7.58965H7.58177H7.57392H7.56607H7.55825H7.55044H7.54264H7.53486H7.5271H7.51936H7.51163H7.50391H7.49622H7.48854H7.48088H7.47323H7.4656H7.45799H7.45039H7.44281H7.43525H7.4277H7.42017H7.41266H7.40517H7.39769H7.39023H7.38279H7.37537H7.36796H7.36057H7.3532H7.34584H7.3385H7.33118H7.32388H7.3166H7.30933H7.30209H7.29486H7.28765H7.28045H7.27328H7.26612H7.25898H7.25186H7.24476H7.23768H7.23061H7.22357H7.21654H7.20953H7.20254H7.19557H7.18862H7.18168H7.17477H7.16788H7.161H7.15414H7.14731H7.14049H7.13369H7.12691H7.12015H7.11341H7.10669H7.09999H7.09331H7.08665H7.08H7.07338H7.06678H7.0602H7.05364H7.0471H7.04057H7.03407H7.02759H7.02113H7.01469H7.00827H7.00187H6.99549H6.98914H6.9828H6.97648H6.97019H6.96391H6.95766H6.95143H6.94521H6.93902H6.93285H6.92671H6.92058H6.91447H6.90839H6.90233H6.89629H6.89027H6.88427H6.87829H6.87234H6.8664H6.86049H6.8546H6.84874H6.84289H6.83707H6.83127H6.82549H6.81974H6.814H6.80829H6.8026H6.79693H6.79129H6.78567H6.78007H6.77449H6.76894H6.76341H6.7579H6.75242H6.74696H6.74152H6.73611H6.73071H6.72534H6.72H6.71468H6.70938H6.7041H6.69885H6.69362H6.68842H6.68324H6.67808H6.67295H6.66784H6.66276H6.6577H6.65266H6.64765H6.64266H6.63769H6.63275H6.62784H6.62295H6.61808H6.61324H6.60842H6.60363H6.59886H6.59411H6.5894H6.5847H6.58003H6.57539H6.57077H6.56618H6.56161H6.55706H6.55255H6.54805H6.54359H6.53914H6.53473H6.53034H6.52597H6.52163H6.51732H6.51303H6.50877H6.50453H6.50032H6.49614H6.49198H6.48785H6.48374H6.47966H6.47561H6.47158H6.46758H6.46361H6.45966H6.45574H6.45185H6.44798H6.44414H6.44033H6.43654H6.43278H6.42905H6.42535H6.42167H6.41802H6.41439H6.4108H6.40723H6.40369H6.40017H6.39669H6.39323H6.38979H6.38639H6.38302H6.37967H6.37635H6.37306H6.36979H6.36656H6.36335H6.36017H6.35702H6.35389H6.3508H6.34773H6.3447H6.34169H6.33871H6.33575H6.33283H6.32994H6.32707H6.32423H6.32142H6.31865H6.3159H6.31317H6.31048H6.30782H6.30519H6.30258H6.30001H6.29747H6.29495H6.29246H6.29001H6.28758H6.28518H6.28282H6.28048H6.27817H6.2759H6.27365H6.27143H6.26925H6.26709H6.26496H6.26287H6.2608H6.25877H6.25676H6.25479H6.25285H6.25093H6.24905H6.2472H6.24538H6.24359H6.24183H6.2401H6.23841H6.23674H6.23511H6.23351H6.23194H6.2304H6.22889H6.22741H6.22596H6.22455H6.22317H6.22182H6.2205H6.21921H6.21796H6.21673H6.21554H6.21439H6.21326H6.21216H6.2111H6.21007H6.20907H6.20811C6.15687 9.52067 6.12659 9.51355 6.11083 9.50774C6.09754 9.50284 6.09297 9.4985 6.08974 9.49488C6.08192 9.48613 6.03686 9.42595 6.03686 9.22528C6.03686 9.20111 6.04721 9.15342 6.14314 9.08453C6.22588 9.02511 6.33105 8.98272 6.40998 8.96097H12.5257ZM4.19519 15.929C4.19512 15.9291 4.19363 15.9293 4.19094 15.9293C4.19392 15.9289 4.19527 15.9289 4.19519 15.929ZM17.3052 4.49148C17.3052 3.7637 17.9141 3.15619 18.6871 3.15619C19.46 3.15619 20.0689 3.7637 20.0689 4.49148C20.0689 5.21926 19.46 5.82677 18.6871 5.82677C17.9141 5.82677 17.3052 5.21926 17.3052 4.49148ZM18.6871 2.38111C17.5056 2.38111 16.5301 3.31627 16.5301 4.49148C16.5301 5.66668 17.5056 6.60185 18.6871 6.60185C19.8685 6.60185 20.844 5.66668 20.844 4.49148C20.844 3.31627 19.8685 2.38111 18.6871 2.38111ZM7.5428 4.52205C6.76982 4.52205 6.16095 5.12956 6.16095 5.85734C6.16095 6.58513 6.76982 7.19263 7.5428 7.19263C8.31578 7.19263 8.92465 6.58513 8.92465 5.85734C8.92465 5.12956 8.31578 4.52205 7.5428 4.52205ZM6.59048 3.96364C6.87848 3.82475 7.20208 3.74697 7.5428 3.74697C8.72424 3.74697 9.69974 4.68214 9.69974 5.85734C9.69974 7.03255 8.72424 7.96771 7.5428 7.96771C6.36137 7.96771 5.38587 7.03255 5.38587 5.85734C5.38587 5.74824 5.39428 5.6412 5.41048 5.53679C5.39875 5.53711 5.38698 5.53727 5.37519 5.53727C4.68818 5.53727 4.1135 4.99237 4.1135 4.29858C4.1135 3.6048 4.68818 3.0599 5.37519 3.0599C5.94686 3.0599 6.44076 3.4372 6.59048 3.96364ZM4.88858 4.29858C4.88858 4.05222 5.09663 3.83498 5.37519 3.83498C5.65374 3.83498 5.86179 4.05222 5.86179 4.29858C5.86179 4.54494 5.65374 4.76218 5.37519 4.76218C5.09663 4.76218 4.88858 4.54494 4.88858 4.29858Z" fill="#3D3D3E"/>
</svg>
