<svg width="28" height="20" viewBox="0 0 28 20" fill="none" xmlns="http://www.w3.org/2000/svg">
<path d="M19 7H17V13H19V7Z" fill="#656564"/>
<path fill-rule="evenodd" clip-rule="evenodd" d="M27.7071 7.70711C27.5196 7.89464 27.2652 8 27 8C26.4696 8 25.9609 8.21071 25.5858 8.58579C25.2107 8.96086 25 9.46957 25 10C25 10.5304 25.2107 11.0391 25.5858 11.4142C25.9609 11.7893 26.4696 12 27 12C27.2652 12 27.5196 12.1054 27.7071 12.2929C27.8946 12.4804 28 12.7348 28 13V18C28 18.5304 27.7893 19.0391 27.4142 19.4142C27.0391 19.7893 26.5304 20 26 20H2C1.46957 20 0.960859 19.7893 0.585786 19.4142C0.210714 19.0391 0 18.5304 0 18V13C0 12.7348 0.105357 12.4804 0.292893 12.2929C0.48043 12.1054 0.734784 12 1 12C1.53043 12 2.03914 11.7893 2.41421 11.4142C2.78929 11.0391 3 10.5304 3 10C3 9.46957 2.78929 8.96086 2.41421 8.58579C2.03914 8.21071 1.53043 8 1 8C0.734784 8 0.48043 7.89464 0.292893 7.70711C0.105357 7.51957 0 7.26522 0 7V2C0 1.46957 0.210714 0.960859 0.585786 0.585786C0.960859 0.210714 1.46957 0 2 0H26C26.5304 0 27.0391 0.210714 27.4142 0.585786C27.7893 0.960859 28 1.46957 28 2V7C28 7.26522 27.8946 7.51957 27.7071 7.70711ZM26 18V13.87C25.144 13.6463 24.3863 13.1451 23.8456 12.4448C23.3048 11.7445 23.0115 10.8848 23.0115 10C23.0115 9.11525 23.3048 8.25546 23.8456 7.5552C24.3863 6.85494 25.144 6.35373 26 6.13V2H19V5H17V2H2V6.13C2.856 6.35373 3.61366 6.85494 4.15442 7.5552C4.69518 8.25546 4.98852 9.11525 4.98852 10C4.98852 10.8848 4.69518 11.7445 4.15442 12.4448C3.61366 13.1451 2.856 13.6463 2 13.87V18H17V15H19V18H26Z" fill="#656564"/>
</svg>
