<svg width="22" height="28" viewBox="0 0 22 28" fill="none" xmlns="http://www.w3.org/2000/svg">
<path d="M9.45867 8.90223H8.60499V9.75591H9.45867V8.90223Z" fill="#3E3E3D"/>
<path d="M10.314 8.90223H11.1677V9.75591H10.314V8.90223Z" fill="#3E3E3D"/>
<path d="M12.8859 8.90223H12.0322V9.75591H12.8859V8.90223Z" fill="#3E3E3D"/>
<path fill-rule="evenodd" clip-rule="evenodd" d="M14.3127 0.547363C14.6211 0.547363 14.8712 0.797403 14.8712 1.10584V2.3313H20.8757C21.1841 2.3313 21.4341 2.58134 21.4341 2.88978V17.1374C21.4341 17.4458 21.1841 17.6959 20.8757 17.6959H15.942L15.9323 17.696H13.3083L17.2799 27.1119C17.3998 27.3961 17.2666 27.7236 16.9824 27.8435C16.6982 27.9634 16.3706 27.8302 16.2507 27.546L14.4228 23.2122H7.09236L5.26439 27.546C5.14452 27.8302 4.81696 27.9634 4.53277 27.8435C4.24857 27.7236 4.11536 27.3961 4.23524 27.1119L8.20681 17.696H5.6084L5.59873 17.6959H0.639534C0.331095 17.6959 0.0810547 17.4458 0.0810547 17.1374V2.88978C0.0810547 2.58134 0.331095 2.3313 0.639534 2.3313H6.67107V1.10584C6.67107 0.797403 6.92111 0.547363 7.22955 0.547363H14.3127ZM20.3172 16.5789H16.4908V15.2833C16.4908 14.9749 16.2407 14.7249 15.9323 14.7249H5.6084C5.29996 14.7249 5.04992 14.9749 5.04992 15.2833V16.5789H1.19802V3.44826H20.3172V16.5789ZM12.4763 16.5789H15.3738V15.8418H6.16688V16.5789H9.03887C9.04545 16.5788 9.05204 16.5788 9.05864 16.5789H12.4565L12.4662 16.5788L12.4763 16.5789ZM7.56349 22.0952L9.41907 17.696H10.1991V22.0952H7.56349ZM11.3161 17.696V22.0952H13.9516L12.0961 17.696H11.3161ZM13.7542 2.31056V1.66432H7.78803V2.31056H13.7542Z" fill="#3E3E3D"/>
</svg>
