<svg width="20" height="26" viewBox="0 0 20 26" fill="none" xmlns="http://www.w3.org/2000/svg">
<path d="M2.23114e-07 25.1869C-0.000105656 25.328 0.0374742 25.4667 0.109041 25.5893C0.180608 25.712 0.283694 25.8143 0.408153 25.8863C0.532612 25.9583 0.674152 25.9974 0.818842 25.9999C0.963531 26.0023 1.10638 25.968 1.23333 25.9003L10 21.2366L18.7667 25.9003C18.8936 25.968 19.0365 26.0023 19.1812 25.9999C19.3258 25.9974 19.4674 25.9583 19.5918 25.8863C19.7163 25.8143 19.8194 25.712 19.891 25.5893C19.9625 25.4667 20.0001 25.328 20 25.1869V3.24993C20 2.38799 19.6488 1.56136 19.0237 0.951881C18.3986 0.342402 17.5507 0 16.6667 0L3.33333 0C2.44928 0 1.60143 0.342402 0.976311 0.951881C0.35119 1.56136 2.23114e-07 2.38799 2.23114e-07 3.24993V25.1869ZM10 7.16609C12.3117 4.85051 18.09 8.9048 10 14.1161C1.91 8.9048 7.68833 4.85214 10 7.16934V7.16609Z" fill="#656564"/>
</svg>
