<svg width="20" height="26" viewBox="0 0 20 26" fill="none" xmlns="http://www.w3.org/2000/svg">
<path d="M9.99935 14.0932C18.0893 8.99107 12.311 5.02169 9.99935 7.28877V7.29195C7.68768 5.02328 1.90934 8.99107 9.99935 14.0932Z" fill="#656564"/>
<path fill-rule="evenodd" clip-rule="evenodd" d="M0.976311 1.20468C0.351189 1.8014 0 2.61072 0 3.45461V24.9322C7.78674e-05 25.0761 0.04104 25.2173 0.118523 25.3407C0.196007 25.4641 0.30711 25.5652 0.439999 25.6331C0.572888 25.701 0.722588 25.7332 0.873152 25.7264C1.02372 25.7195 1.16951 25.6738 1.295 25.5941L10 21.1156L18.705 25.5941C18.8305 25.6738 18.9763 25.7195 19.1268 25.7264C19.2774 25.7332 19.4271 25.701 19.56 25.6331C19.6929 25.5652 19.804 25.4641 19.8815 25.3407C19.959 25.2173 19.9999 25.0761 20 24.9322V3.45461C20 2.61072 19.6488 1.8014 19.0237 1.20468C18.3986 0.607967 17.5507 0.272736 16.6667 0.272736H3.33333C2.44928 0.272736 1.60143 0.607967 0.976311 1.20468ZM2.15482 2.32964C2.46738 2.03129 2.89131 1.86367 3.33333 1.86367H16.6667C17.1087 1.86367 17.5326 2.03129 17.8452 2.32964C18.1577 2.628 18.3333 3.03266 18.3333 3.45461V23.4463L10.4617 19.4976C10.3249 19.4107 10.1643 19.3644 10 19.3644C9.83572 19.3644 9.6751 19.4107 9.53833 19.4976L1.66667 23.4463V3.45461C1.66667 3.03266 1.84226 2.628 2.15482 2.32964Z" fill="#656564"/>
</svg>
