<svg width="28" height="36" viewBox="0 0 28 36" fill="none" xmlns="http://www.w3.org/2000/svg">
<path fill-rule="evenodd" clip-rule="evenodd" d="M5.25 35.5H22.75C23.5833 35.5 24 35.0833 24 34.25C24 33.4167 23.5833 33 22.75 33H16.6511C24.051 25.7414 27.75 19.4902 27.75 14.25C27.75 10.6033 26.3013 7.10591 23.7227 4.52728C21.1441 1.94866 17.6467 0.5 14 0.5C10.3533 0.5 6.85591 1.94866 4.27728 4.52728C1.69866 7.10591 0.25 10.6033 0.25 14.25C0.25 19.4902 3.94901 25.7414 11.3489 33H5.25C4.41667 33 4 33.4167 4 34.25C4 35.0833 4.41667 35.5 5.25 35.5ZM25.25 14.25C25.25 11.2663 24.0647 8.40483 21.955 6.29505C19.8452 4.18526 16.9837 3 14 3C11.0163 3 8.15483 4.18526 6.04505 6.29505C3.93526 8.40483 2.75 11.2663 2.75 14.25C2.75 18.865 6.4425 24.88 14 32.085C21.5575 24.88 25.25 18.865 25.25 14.25Z" fill="#E10098"/>
<path fill-rule="evenodd" clip-rule="evenodd" d="M21.955 6.29505C24.0647 8.40483 25.25 11.2663 25.25 14.25C25.25 18.865 21.5575 24.88 14 32.085C6.4425 24.88 2.75 18.865 2.75 14.25C2.75 11.2663 3.93526 8.40483 6.04505 6.29505C8.15483 4.18526 11.0163 3 14 3C16.9837 3 19.8452 4.18526 21.955 6.29505ZM9.58058 18.6694C10.7527 19.8415 12.3424 20.5 14 20.5C15.6576 20.5 17.2473 19.8415 18.4194 18.6694C19.5915 17.4973 20.25 15.9076 20.25 14.25C20.25 12.5924 19.5915 11.0027 18.4194 9.83058C17.2473 8.65848 15.6576 8 14 8C12.3424 8 10.7527 8.65848 9.58058 9.83058C8.40848 11.0027 7.75 12.5924 7.75 14.25C7.75 15.9076 8.40848 17.4973 9.58058 18.6694Z" fill="#E10098"/>
<path d="M14 18C14.9946 18 15.9484 17.6049 16.6517 16.9016C17.3549 16.1984 17.75 15.2446 17.75 14.25C17.75 13.2554 17.3549 12.3016 16.6517 11.5983C15.9484 10.8951 14.9946 10.5 14 10.5C13.0054 10.5 12.0516 10.8951 11.3483 11.5983C10.6451 12.3016 10.25 13.2554 10.25 14.25C10.25 15.2446 10.6451 16.1984 11.3483 16.9016C12.0516 17.6049 13.0054 18 14 18Z" fill="#E10098"/>
</svg>
