<svg width="22" height="16" viewBox="0 0 22 16" fill="none" xmlns="http://www.w3.org/2000/svg">
<path d="M1.16111 0.666656H20.8389C21.4802 0.666656 22 1.1865 22 1.82777V1.94999C22 2.59125 21.4802 3.1111 20.8389 3.1111H1.16111C0.519847 3.1111 0 2.59125 0 1.94999V1.82777C0 1.1865 0.519847 0.666656 1.16111 0.666656Z" fill="#656564"/>
<path d="M20.8389 6.77777H1.16111C0.519847 6.77777 0 7.29761 0 7.93888V8.0611C0 8.70236 0.519847 9.22221 1.16111 9.22221H20.8389C21.4802 9.22221 22 8.70236 22 8.0611V7.93888C22 7.29761 21.4802 6.77777 20.8389 6.77777Z" fill="#656564"/>
<path d="M20.8389 12.8889H1.16111C0.519847 12.8889 0 13.4087 0 14.05V14.1722C0 14.8135 0.519847 15.3333 1.16111 15.3333H20.8389C21.4802 15.3333 22 14.8135 22 14.1722V14.05C22 13.4087 21.4802 12.8889 20.8389 12.8889Z" fill="#656564"/>
</svg>
