<svg width="32" height="32" viewBox="0 0 32 32" fill="none" xmlns="http://www.w3.org/2000/svg">
<path d="M16 8.52338C15.1716 8.52338 14.5 9.19495 14.5 10.0234C14.5 10.8518 15.1716 11.5234 16 11.5234H16.0163C16.8447 11.5234 17.5163 10.8518 17.5163 10.0234C17.5163 9.19495 16.8447 8.52338 16.0163 8.52338H16Z" fill="#656564"/>
<path d="M12.7515 13.5211C12.1992 13.5211 11.7515 13.9688 11.7515 14.5211C11.7515 15.0734 12.1992 15.5211 12.7515 15.5211H15.0003V21.6433H12.7515C12.1992 21.6433 11.7515 22.091 11.7515 22.6433C11.7515 23.1955 12.1992 23.6433 12.7515 23.6433H19.2492C19.8015 23.6433 20.2492 23.1955 20.2492 22.6433C20.2492 22.091 19.8015 21.6433 19.2492 21.6433H17.0003V14.5211C17.0003 13.9688 16.5526 13.5211 16.0003 13.5211H12.7515Z" fill="#656564"/>
<path fill-rule="evenodd" clip-rule="evenodd" d="M32 16C32 24.8366 24.8366 32 16 32C7.16344 32 0 24.8366 0 16C0 7.16344 7.16344 0 16 0C24.8366 0 32 7.16344 32 16ZM30 16C30 23.732 23.732 30 16 30C8.26801 30 2 23.732 2 16C2 8.26801 8.26801 2 16 2C23.732 2 30 8.26801 30 16Z" fill="#656564"/>
</svg>
