<svg width="28" height="26" viewBox="0 0 28 26" fill="none" xmlns="http://www.w3.org/2000/svg">
<path fill-rule="evenodd" clip-rule="evenodd" d="M11.578 0C14.7436 0 17.6163 1.02929 19.7022 2.69456C21.8204 4.38465 23.1247 6.72489 23.1247 9.32202C23.1247 11.9191 21.815 14.2629 19.6968 15.953C17.6109 17.6165 14.7382 18.6476 11.5726 18.6476C11.0323 18.6472 10.4925 18.617 9.95565 18.5572H9.93769C9.4668 18.5048 8.99903 18.4279 8.53634 18.3269L2.52315 20.3997C2.41922 20.4362 2.30655 20.4412 2.19971 20.414C2.09287 20.3868 1.99678 20.3286 1.92384 20.2469C1.8509 20.1653 1.80449 20.0639 1.79058 19.956C1.77668 19.8481 1.79591 19.7385 1.84583 19.6414L3.64242 16.1071C2.60042 15.325 1.72856 14.3441 1.07868 13.223C0.392482 12.0352 0.0297854 10.6925 0.0258789 9.32556C0.0258789 6.72844 1.33559 4.38465 3.45197 2.69456C5.53782 1.02929 8.41238 0 11.578 0ZM11.578 17.5563C14.4849 17.5563 17.1115 16.6209 19.0051 15.1097C20.8664 13.6216 22.0126 11.5719 22.0126 9.32025C22.0126 7.06858 20.8592 5.02241 18.9979 3.53606C17.1043 2.02491 14.4795 1.08952 11.5708 1.08952C8.6621 1.08952 6.03729 2.02491 4.14368 3.53606C2.28061 5.02241 1.12899 7.06858 1.12899 9.32025C1.13203 10.5008 1.44522 11.6605 2.03805 12.6862C2.68712 13.7943 3.576 14.7476 4.64134 15.4782C4.75725 15.5514 4.84157 15.6643 4.87806 15.7952C4.91455 15.926 4.90063 16.0655 4.83896 16.1869L3.4502 18.9275L8.301 17.2551C8.40797 17.2115 8.52613 17.2022 8.63876 17.2286C9.11255 17.3383 9.59247 17.4205 10.076 17.4748H10.0922C10.5855 17.5293 11.0816 17.5565 11.578 17.5563Z" fill="#3D3D3E"/>
<path d="M10.5418 20.2714C10.5595 20.3428 10.5917 20.4099 10.6363 20.4687L10.6166 20.467C11.4875 21.6855 12.6686 22.6564 14.0409 23.282C15.4977 23.9558 17.0885 24.3014 18.6976 24.2936C19.1287 24.2934 19.5593 24.2691 19.9876 24.2209C20.3528 24.1805 20.7156 24.1213 21.0745 24.0438L25.3037 25.7569C25.4018 25.7958 25.5092 25.8064 25.6131 25.7872C25.7171 25.768 25.8133 25.72 25.8905 25.6487C25.9677 25.5774 26.0226 25.4858 26.0489 25.3848C26.0751 25.2838 26.0715 25.1775 26.0385 25.0784L25.0755 22.2439C25.9034 21.6171 26.5965 20.8342 27.1147 19.9408C27.6728 18.9805 27.9652 17.8924 27.9627 16.7855C27.9602 15.6787 27.6628 14.5919 27.1003 13.634C26.5016 12.6178 25.6804 11.7462 24.6964 11.0829C24.5772 11.0152 24.4366 10.9938 24.3022 11.0231C24.1678 11.0524 24.0493 11.1301 23.9701 11.2411C23.8909 11.3521 23.8566 11.4883 23.874 11.6229C23.8913 11.7575 23.9592 11.8809 24.0641 11.9687C24.9125 12.5395 25.6208 13.2901 26.1373 14.1655C26.6039 14.9604 26.8505 15.8622 26.8524 16.7807C26.8542 17.6991 26.6114 18.6019 26.1481 19.3987C25.6402 20.2679 24.9424 21.0146 24.1054 21.5848C24.0078 21.6524 23.9349 21.7493 23.8977 21.861C23.8605 21.9728 23.8608 22.0934 23.8988 22.2049L24.6066 24.2936L21.3728 22.9808C21.2613 22.9269 21.1344 22.9125 21.0134 22.9401C20.6392 23.0267 20.26 23.0912 19.878 23.1332C19.4915 23.1763 19.1028 23.1976 18.7138 23.197C17.2699 23.2056 15.8422 22.8963 14.5349 22.2917C13.3389 21.7507 12.3085 20.9088 11.5472 19.8505C11.5074 19.7883 11.4553 19.7347 11.394 19.6929C11.3327 19.6511 11.2635 19.6219 11.1905 19.6072C11.1175 19.5924 11.0422 19.5923 10.9692 19.6069C10.8961 19.6215 10.8269 19.6505 10.7655 19.6922C10.7041 19.7339 10.6519 19.7873 10.612 19.8494C10.572 19.9115 10.5452 19.9808 10.5332 20.0533C10.5211 20.1259 10.524 20.2 10.5418 20.2714Z" fill="#3D3D3E"/>
</svg>
