<svg width="18" height="22" viewBox="0 0 18 22" fill="none" xmlns="http://www.w3.org/2000/svg">
<path fill-rule="evenodd" clip-rule="evenodd" d="M10.5 21.5L1.5 21.5C1.10229 21.4996 0.720995 21.3414 0.439777 21.0602C0.158558 20.779 0.000394918 20.3977 -1.77621e-06 20L1.70474e-06 2C0.000398468 1.60229 0.158562 1.221 0.439781 0.939776C0.720999 0.658556 1.1023 0.500393 1.5 0.499997L10.5 0.499999C10.8977 0.500396 11.279 0.658561 11.5602 0.939777C11.8414 1.221 11.9996 1.6023 12 2L12 4.25L10.5 4.25L10.5 2L1.5 2L1.5 20L10.5 20L10.5 17.75L12 17.75L12 20C11.9996 20.3977 11.8414 20.779 11.5602 21.0602C11.279 21.3414 10.8977 21.4996 10.5 21.5ZM15.129 11.75L12.4395 14.4395L13.5 15.5L18 11L13.5 6.5L12.4395 7.5605L15.129 10.25L4.5 10.25L4.5 11.75L15.129 11.75Z" fill="#383837"/>
</svg>
