<svg width="28" height="24" viewBox="0 0 28 24" fill="none" xmlns="http://www.w3.org/2000/svg">
<path fill-rule="evenodd" clip-rule="evenodd" d="M16.3182 0.282949C15.9212 -0.100979 15.2881 -0.0903725 14.9042 0.306639C14.5203 0.70365 14.5309 1.33673 14.9279 1.72065L24.5225 10.9991H1.00146C0.44918 10.9991 0.00146484 11.4468 0.00146484 11.9991C0.00146484 12.5514 0.44918 12.9991 1.00146 12.9991H24.5226L14.9279 22.2776C14.5309 22.6615 14.5203 23.2946 14.9042 23.6916C15.2881 24.0886 15.9212 24.0992 16.3182 23.7153L27.6903 12.718C27.8851 12.5296 27.9951 12.2701 27.9951 11.9991C27.9951 11.7281 27.8851 11.4687 27.6903 11.2803L16.3182 0.282949Z" fill="#656564"/>
</svg>
