<svg width="28" height="23" viewBox="0 0 28 23" fill="none" xmlns="http://www.w3.org/2000/svg">
<path fill-rule="evenodd" clip-rule="evenodd" d="M25.5536 1.53878H3.16768C2.82504 1.53878 2.54391 1.81005 2.53168 2.15247L2.48829 3.36744C2.68116 4.2694 3.49851 4.94682 4.47754 4.94682H4.52856C5.651 4.94682 6.56091 4.05641 6.56091 2.95804V2.95204H7.37395V2.95804C7.37395 4.05641 8.28386 4.94682 9.4063 4.94682H9.45732C10.5722 4.94682 11.4775 4.0683 11.4896 2.98019C11.4897 2.97072 11.4901 2.96134 11.4909 2.95204H12.3011C12.3019 2.96134 12.3023 2.97072 12.3025 2.98019C12.3145 4.0683 13.2198 4.94682 14.3347 4.94682H14.3857C15.5081 4.94682 16.4181 4.05641 16.4181 2.95804V2.95204H17.2315V2.95804C17.2315 4.05641 18.1414 4.94682 19.2638 4.94682H19.3149C20.4297 4.94682 21.335 4.06832 21.3471 2.98022C21.3472 2.97074 21.3476 2.96135 21.3484 2.95204H22.1587C22.1594 2.96135 22.1599 2.97074 22.16 2.98022C22.1721 4.06832 23.0773 4.94682 24.1922 4.94682H24.2432C25.2229 4.94682 26.0407 4.26846 26.2329 3.36556L26.1896 2.15247C26.1773 1.81005 25.8962 1.53878 25.5536 1.53878ZM2.16431 12.4389L2.43373 4.89513C2.95094 5.41758 3.67548 5.74232 4.47754 5.74232H4.52856C5.5636 5.74232 6.46956 5.20151 6.96743 4.3929C7.19939 4.76963 7.51993 5.08823 7.90083 5.32109C6.48231 9.82961 3.72619 11.8252 2.16431 12.4389ZM2.77073 12.9803C4.577 12.1608 7.21711 9.98988 8.62051 5.63479C8.87009 5.70482 9.13372 5.74232 9.4063 5.74232H9.45732C10.4922 5.74232 11.3981 5.20166 11.896 4.3932C12.3939 5.20166 13.2998 5.74232 14.3347 5.74232H14.3857C15.4209 5.74232 16.3269 5.20137 16.8248 4.39258C17.3226 5.20137 18.2287 5.74232 19.2638 5.74232H19.3149C19.5911 5.74232 19.8582 5.7038 20.1107 5.63194C21.691 10.0073 24.7994 11.9275 26.5574 12.4509L26.5665 12.7079C25.5909 12.9302 24.9371 13.4821 24.3361 14.3585C23.7483 15.2154 23.1647 16.4525 22.381 18.1521C21.8985 17.8574 21.3314 17.6876 20.7247 17.6876H19.9292C18.7312 17.6876 17.6878 18.3497 17.1449 19.3279C16.6021 18.3497 15.5587 17.6876 14.3606 17.6876H13.5651C12.3671 17.6876 11.3237 18.3497 10.7809 19.3279C10.238 18.3497 9.19462 17.6876 7.99657 17.6876H7.20106C6.67665 17.6876 6.18187 17.8144 5.74573 18.0391C5.07631 16.3975 4.57204 15.1963 4.06434 14.3585C3.68558 13.7334 3.28313 13.2734 2.77073 12.9803ZM5.09546 18.4838C4.36589 16.6922 3.85163 15.4492 3.34119 14.6068C2.93477 13.9361 2.55896 13.5677 2.13081 13.3767L1.84981 21.2447C1.83695 21.6049 2.12543 21.9038 2.48582 21.9038H4.01902V20.8696C4.01902 19.9196 4.43533 19.0669 5.09546 18.4838ZM4.97363 21.9038H10.224V20.8696C10.224 19.6394 9.22674 18.6422 7.99657 18.6422H7.20106C5.97089 18.6422 4.97363 19.6394 4.97363 20.8696V21.9038ZM11.3377 21.9038H16.5881V20.8696C16.5881 19.6394 15.5908 18.6422 14.3606 18.6422H13.5651C12.335 18.6422 11.3377 19.6394 11.3377 20.8696V21.9038ZM17.7018 21.9038H22.9521V20.8696C22.9521 19.6394 21.9549 18.6422 20.7247 18.6422H19.9292C18.699 18.6422 17.7018 19.6394 17.7018 20.8696V21.9038ZM23.9068 21.9038H26.2354C26.5958 21.9038 26.8843 21.6049 26.8714 21.2447L26.5896 13.3522C26.0777 13.5355 25.635 13.9063 25.1545 14.6068C24.5526 15.4845 23.9459 16.7972 23.0638 18.7122C23.5871 19.2793 23.9068 20.0371 23.9068 20.8696V21.9038ZM26.5299 11.6816C24.9459 11.1188 22.2157 9.32635 20.7952 5.33629C21.187 5.10224 21.5165 4.77806 21.7535 4.3932C22.2515 5.20166 23.1573 5.74232 24.1922 5.74232H24.2432C25.0455 5.74232 25.7703 5.41739 26.2875 4.89468L26.5299 11.6816ZM3.16768 0.584167C2.31109 0.584167 1.60825 1.26235 1.57768 2.1184L0.89581 21.2106C0.863654 22.111 1.58486 22.8584 2.48582 22.8584H26.2354C27.1364 22.8584 27.8576 22.111 27.8254 21.2106L27.1436 2.1184C27.113 1.26235 26.4102 0.584167 25.5536 0.584167H3.16768Z" fill="#3D3D3E"/>
</svg>
