<svg width="32" height="32" viewBox="0 0 32 32" fill="none" xmlns="http://www.w3.org/2000/svg">
<path d="M2.84989 16.0012C2.8449 18.7986 3.73678 21.5239 5.39461 23.7771V22.4603C5.39461 21.1771 6.11549 20.0934 7.11271 19.7354C6.59559 19.5547 6.15952 19.1962 5.88238 18.7237C5.60523 18.2512 5.50505 17.6956 5.59974 17.1561C5.69442 16.6166 5.97781 16.1283 6.39927 15.7785C6.82074 15.4286 7.35285 15.24 7.90057 15.2462C8.44829 15.2525 8.97595 15.4532 9.38932 15.8126C9.80269 16.172 10.0748 16.6666 10.1572 17.2082C10.2395 17.7497 10.1267 18.3029 9.83883 18.7689C9.55096 19.2349 9.10682 19.5834 8.58571 19.7522C9.00276 19.9322 9.36825 20.2135 9.64898 20.5706C9.92972 20.9277 10.1168 21.3493 10.1933 21.7971C10.3062 19.8747 11.414 18.2936 12.9062 17.7553C12.2877 17.5046 11.7753 17.0472 11.4563 16.4609C11.1374 15.8747 11.0317 15.1959 11.1572 14.5405C11.2828 13.885 11.6318 13.2934 12.1448 12.8665C12.6578 12.4396 13.303 12.2038 13.9704 12.1995C14.6378 12.1951 15.286 12.4224 15.8046 12.8425C16.3231 13.2626 16.6799 13.8496 16.814 14.5034C16.9481 15.1572 16.8513 15.8372 16.5401 16.4276C16.2289 17.018 15.7225 17.4821 15.1073 17.7409C15.6153 17.9355 16.0794 18.2295 16.4722 18.6059C16.865 18.9822 17.1787 19.4332 17.3949 19.9324C17.7169 17.8226 19.2139 16.1478 21.1243 15.7489C20.2765 15.539 19.5348 15.0262 19.0392 14.307C18.5436 13.5879 18.3283 12.7123 18.434 11.8453C18.5397 10.9784 18.9591 10.1801 19.6129 9.60108C20.2668 9.02209 21.11 8.70243 21.9833 8.70243C22.8567 8.70243 23.6999 9.02209 24.3537 9.60108C25.0076 10.1801 25.4269 10.9784 25.5326 11.8453C25.6383 12.7123 25.423 13.5879 24.9274 14.307C24.4318 15.0262 23.6902 15.539 22.8424 15.7489C25.0242 16.1838 26.6871 18.2792 26.6871 20.795V23.6786C27.8975 21.9957 28.6931 20.0506 29.0087 18.0018C29.3244 15.953 29.1513 13.8586 28.5035 11.8895C27.8557 9.92035 26.7517 8.13222 25.2813 6.67096C23.811 5.20971 22.016 4.11672 20.0429 3.48117C18.0698 2.84561 15.9744 2.68549 13.9276 3.01386C11.8808 3.34222 9.94062 4.14978 8.26532 5.37065C6.59002 6.59153 5.22705 8.19114 4.28759 10.039C3.34814 11.8869 2.8588 13.9306 2.8595 16.0036L2.84989 16.0012ZM1.80485e-07 16.0012C-0.000475072 12.8362 0.937635 9.74223 2.69569 7.11048C4.45374 4.47872 6.95276 2.42744 9.87669 1.21605C12.8006 0.00465381 16.0181 -0.312426 19.1223 0.304907C22.2264 0.922241 25.0778 2.44626 27.3157 4.68421C29.5537 6.92216 31.0777 9.77353 31.695 12.8777C32.3124 15.9818 31.9953 19.1993 30.7839 22.1233C29.5725 25.0472 27.5212 27.5462 24.8895 29.3043C22.2577 31.0623 19.1637 32.0005 15.9988 32C11.7556 32 7.68629 30.3144 4.68594 27.314C1.68558 24.3137 1.80485e-07 20.2443 1.80485e-07 16.0012Z" fill="#656564"/>
</svg>
