<svg width="26" height="29" viewBox="0 0 26 29" fill="none" xmlns="http://www.w3.org/2000/svg">
<path fill-rule="evenodd" clip-rule="evenodd" d="M12.8515 4.95669C12.7945 4.95669 12.7381 4.94547 12.6855 4.92367C12.6329 4.90188 12.5851 4.86993 12.5448 4.82966C12.5045 4.78938 12.4726 4.74157 12.4508 4.68895C12.429 4.63633 12.4178 4.57994 12.4178 4.52298V0.56032C12.4137 0.500723 12.4219 0.440921 12.4419 0.38463C12.4618 0.328338 12.4932 0.276758 12.534 0.233095C12.5747 0.189432 12.6241 0.154615 12.6788 0.130812C12.7336 0.10701 12.7927 0.0947266 12.8525 0.0947266C12.9122 0.0947266 12.9713 0.10701 13.0261 0.130812C13.0809 0.154615 13.1302 0.189432 13.171 0.233095C13.2118 0.276758 13.2431 0.328338 13.2631 0.38463C13.2831 0.440921 13.2913 0.500723 13.2872 0.56032V4.52298C13.2872 4.58011 13.2759 4.63667 13.254 4.68943C13.2321 4.74218 13.1999 4.79009 13.1594 4.83039C13.119 4.87069 13.0709 4.90259 13.0181 4.92426C12.9652 4.94594 12.9086 4.95695 12.8515 4.95669ZM5.67913 7.08624C5.62198 7.08625 5.5654 7.07486 5.51271 7.05272C5.46002 7.03059 5.41227 6.99817 5.37227 6.95735L2.83757 4.42264C2.75619 4.34126 2.71046 4.23088 2.71046 4.11578C2.71046 4.00068 2.75619 3.8903 2.83757 3.80891C2.91896 3.72753 3.02934 3.6818 3.14444 3.6818C3.25954 3.6818 3.36992 3.72753 3.45131 3.80891L5.98397 6.34362C6.02431 6.3839 6.05629 6.43174 6.07812 6.48439C6.09995 6.53705 6.11119 6.59349 6.11119 6.65049C6.11119 6.70749 6.09995 6.76393 6.07812 6.81658C6.05629 6.86924 6.02431 6.91707 5.98397 6.95735C5.94435 6.99811 5.89696 7.03051 5.8446 7.05265C5.79225 7.07479 5.73597 7.0862 5.67913 7.08624ZM12.8515 21.2614C3.81329 21.2614 0.0920139 14.7497 0.0551899 14.6842C0.0189957 14.6195 0 14.5466 0 14.4725C0 14.3984 0.0189957 14.3255 0.0551899 14.2608C0.0920139 14.1953 3.81329 7.6836 12.8515 7.6836C21.8897 7.6836 25.613 14.1953 25.6499 14.2608C25.6851 14.3258 25.7036 14.3985 25.7036 14.4725C25.7036 14.5465 25.6851 14.6192 25.6499 14.6842C25.613 14.7497 21.8897 21.2614 12.8515 21.2614ZM0.947144 14.4715C1.54483 15.3853 4.19625 18.9771 9.5874 20.0728C9.47297 20.0062 9.36039 19.9358 9.24982 19.862C8.18368 19.1496 7.35275 18.1371 6.86206 16.9525C6.37138 15.7678 6.24299 14.4643 6.49314 13.2067C6.74329 11.9491 7.36074 10.794 8.26741 9.88728C8.66251 9.49218 9.10481 9.152 9.5822 8.87321C4.19455 9.97016 1.54464 13.5597 0.947144 14.4715ZM24.7559 14.4715C24.1579 15.3856 21.5046 18.98 16.1091 20.0742C16.5889 19.795 17.0348 19.4532 17.434 19.0539C18.6495 17.8385 19.333 16.1904 19.3347 14.4715C19.3347 13.1893 18.9544 11.9358 18.2421 10.8697C17.6936 10.0488 16.9671 9.36734 16.1212 8.87327C21.5086 9.97031 24.1584 13.5597 24.7559 14.4715ZM12.8516 8.85789C11.7414 8.85789 10.656 9.18713 9.73286 9.80396C8.80971 10.4208 8.0902 11.2975 7.66532 12.3233C7.24043 13.349 7.12929 14.4777 7.34589 15.5667C7.56249 16.6556 8.09714 17.6558 8.88222 18.4409C9.66729 19.226 10.6675 19.7606 11.7565 19.9772C12.8454 20.1938 13.9741 20.0827 14.9999 19.6578C16.0256 19.2329 16.9023 18.5134 17.5192 17.5903C18.136 16.6671 18.4652 15.5818 18.4652 14.4715C18.4636 12.9832 17.8717 11.5563 16.8193 10.5039C15.7668 9.45147 14.3399 8.85952 12.8516 8.85789ZM11.426 16.6045C11.8479 16.8863 12.3439 17.0368 12.8513 17.0368C13.5315 17.0363 14.1837 16.7658 14.6647 16.2848C15.1457 15.8038 15.4162 15.1516 15.4167 14.4714C15.4167 13.964 15.2662 13.468 14.9843 13.0462C14.7025 12.6243 14.3018 12.2955 13.833 12.1013C13.3643 11.9071 12.8485 11.8563 12.3508 11.9553C11.8532 12.0543 11.3961 12.2986 11.0373 12.6574C10.6785 13.0162 10.4342 13.4733 10.3352 13.9709C10.2362 14.4686 10.287 14.9844 10.4812 15.4531C10.6753 15.9219 11.0042 16.3226 11.426 16.6045ZM11.9091 13.0613C12.188 12.8749 12.5159 12.7755 12.8513 12.7755C13.3009 12.776 13.732 12.9549 14.0499 13.2728C14.3678 13.5907 14.5467 14.0218 14.5472 14.4714C14.5472 14.8068 14.4478 15.1347 14.2614 15.4136C14.0751 15.6925 13.8102 15.9099 13.5003 16.0383C13.1904 16.1666 12.8494 16.2002 12.5204 16.1348C12.1914 16.0693 11.8893 15.9078 11.6521 15.6706C11.4149 15.4334 11.2534 15.1312 11.1879 14.8023C11.1225 14.4733 11.1561 14.1323 11.2844 13.8224C11.4128 13.5125 11.6302 13.2476 11.9091 13.0613ZM2.90339 25.1981C2.97479 25.2457 3.05872 25.2711 3.14456 25.271C3.20189 25.2715 3.25873 25.2605 3.31177 25.2387C3.36481 25.2169 3.41296 25.1848 3.45344 25.1442L5.98611 22.6095C6.0675 22.5281 6.11322 22.4177 6.11322 22.3026C6.11322 22.1875 6.0675 22.0771 5.98611 21.9958C5.90473 21.9144 5.79434 21.8686 5.67925 21.8686C5.56415 21.8686 5.45377 21.9144 5.37238 21.9958L2.83769 24.5305C2.77696 24.5911 2.73559 24.6684 2.71882 24.7526C2.70205 24.8368 2.71063 24.9241 2.74349 25.0034C2.77635 25.0827 2.832 25.1504 2.90339 25.1981ZM20.0241 7.08624C19.9383 7.08575 19.8546 7.05992 19.7834 7.01201C19.7122 6.96409 19.6567 6.89622 19.6239 6.81691C19.5911 6.73759 19.5825 6.65036 19.5991 6.56617C19.6157 6.48197 19.6568 6.40455 19.7173 6.34362L22.252 3.80891C22.3334 3.72753 22.4437 3.6818 22.5588 3.6818C22.6739 3.6818 22.7843 3.72753 22.8657 3.80891C22.9471 3.8903 22.9928 4.00068 22.9928 4.11578C22.9928 4.23088 22.9471 4.34126 22.8657 4.42264L20.331 6.95735C20.291 6.99817 20.2433 7.03059 20.1906 7.05272C20.1379 7.07486 20.0813 7.08625 20.0241 7.08624ZM22.3926 25.2386C22.4453 25.2604 22.5018 25.2714 22.5588 25.271C22.6159 25.2714 22.6724 25.2604 22.7251 25.2386C22.7778 25.2168 22.8256 25.1847 22.8657 25.1442C22.906 25.1039 22.9381 25.0561 22.9599 25.0034C22.9817 24.9508 22.9929 24.8943 22.9929 24.8373C22.9929 24.7803 22.9817 24.7239 22.9599 24.6712C22.9381 24.6186 22.906 24.5708 22.8657 24.5305L20.331 21.9958C20.2496 21.9144 20.1392 21.8686 20.0241 21.8686C19.909 21.8686 19.7986 21.9144 19.7173 21.9958C19.6359 22.0771 19.5902 22.1875 19.5902 22.3026C19.5902 22.4177 19.6359 22.5281 19.7173 22.6095L22.252 25.1442C22.2921 25.1847 22.3399 25.2168 22.3926 25.2386ZM12.6852 28.7874C12.7379 28.8093 12.7945 28.8206 12.8516 28.8206C12.9672 28.8206 13.078 28.7747 13.1597 28.6929C13.2414 28.6112 13.2874 28.5004 13.2874 28.3848V24.4221C13.2798 24.312 13.2307 24.2088 13.15 24.1335C13.0693 24.0581 12.963 24.0162 12.8526 24.0162C12.7422 24.0162 12.636 24.0581 12.5553 24.1335C12.4746 24.2088 12.4255 24.312 12.4179 24.4221V28.3848C12.4176 28.4419 12.4286 28.4986 12.4503 28.5514C12.472 28.6043 12.5039 28.6523 12.5442 28.6928C12.5845 28.7333 12.6324 28.7654 12.6852 28.7874Z" fill="#3E3E3D"/>
</svg>
