<svg width="30" height="30" viewBox="0 0 30 30" fill="none" xmlns="http://www.w3.org/2000/svg">
<path fill-rule="evenodd" clip-rule="evenodd" d="M5.77608 1.41487C6.73597 0.453023 8.3679 0.36348 9.31684 1.45841L13.7995 6.63279C13.8091 6.64295 13.8185 6.65334 13.8277 6.66396C14.6857 7.65451 14.5193 9.0998 13.646 9.9774L12.0301 11.5945C13.5893 14.2078 15.7722 16.3938 18.3832 17.9568L20.0012 16.3364C20.8745 15.461 22.3149 15.293 23.3045 16.1426C23.3045 16.1426 23.3045 16.1425 23.3045 16.1426L28.5312 20.6292C29.6352 21.5776 29.5472 23.2175 28.5843 24.1805L24.8409 27.9305C23.4632 29.3098 21.3699 29.7477 19.6375 28.9062C11.5406 24.9813 5.00602 18.4375 1.09268 10.3349C0.252671 8.60209 0.690121 6.50933 2.06675 5.13087M2.06675 5.13087L5.77608 1.41487C5.77613 1.41482 5.77603 1.41492 5.77608 1.41487M11.8146 11.8098L11.8219 11.8026C11.8195 11.805 11.8171 11.8074 11.8146 11.8098ZM12.3272 7.98754C12.3235 7.98333 12.3197 7.97908 12.316 7.97479L7.80546 2.76827C7.80542 2.76823 7.80551 2.76832 7.80546 2.76827C7.71433 2.66333 7.43972 2.57911 7.19171 2.82767L3.48223 6.54381C2.65147 7.37558 2.45663 8.56465 2.89281 9.4634L2.89363 9.4651C6.61114 17.1622 12.8188 23.3785 20.5107 27.1068C21.4075 27.5425 22.5951 27.3487 23.4254 26.5175C23.4255 26.5175 23.4254 26.5176 23.4254 26.5175L27.1694 22.7669C27.4198 22.5165 27.3348 22.2381 27.2282 22.1466L22.0018 17.6601C21.898 17.571 21.6398 17.5257 21.4171 17.7489L19.6041 19.5646C19.1065 20.0768 18.3095 20.2007 17.6797 19.8622C17.6711 19.8575 17.6626 19.8528 17.6541 19.8479C14.5282 18.0479 11.9352 15.4515 10.1393 12.3232C10.1346 12.3152 10.1301 12.307 10.1257 12.2988C9.78706 11.6688 9.91075 10.8717 10.4227 10.3736L12.2283 8.56662C12.2285 8.56644 12.2282 8.56679 12.2283 8.56662C12.4436 8.34988 12.4106 8.10072 12.3272 7.98754Z" fill="#656564"/>
</svg>
