<svg width="22" height="28" viewBox="0 0 22 28" fill="none" xmlns="http://www.w3.org/2000/svg">
<path fill-rule="evenodd" clip-rule="evenodd" d="M16 11C16 13.7614 13.7614 16 11 16C8.23858 16 6 13.7614 6 11C6 8.23858 8.23858 6 11 6C13.7614 6 16 8.23858 16 11ZM14 11C14 12.6569 12.6569 14 11 14C9.34315 14 8 12.6569 8 11C8 9.34315 9.34315 8 11 8C12.6569 8 14 9.34315 14 11Z" fill="#656564"/>
<path fill-rule="evenodd" clip-rule="evenodd" d="M19 27C19 27.6667 18.6667 28 18 28H4C3.33333 28 3 27.6667 3 27C3 26.3333 3.33333 26 4 26H8.87908C2.95921 20.1931 0 15.1921 0 11C0 8.08262 1.15893 5.28473 3.22183 3.22183C5.28473 1.15893 8.08262 0 11 0C13.9174 0 16.7153 1.15893 18.7782 3.22183C20.8411 5.28473 22 8.08262 22 11C22 15.1921 19.0408 20.1931 13.1209 26H18C18.6667 26 19 26.3333 19 27ZM17.364 4.63604C19.0518 6.32387 20 8.61305 20 11C20 14.692 17.046 19.504 11 25.268C4.954 19.504 2 14.692 2 11C2 8.61305 2.94821 6.32387 4.63604 4.63604C6.32387 2.94821 8.61305 2 11 2C13.3869 2 15.6761 2.94821 17.364 4.63604Z" fill="#656564"/>
</svg>
