<svg width="28" height="24" viewBox="0 0 28 24" fill="none" xmlns="http://www.w3.org/2000/svg">
<path d="M11.6784 23.7153C12.0754 24.0992 12.7085 24.0886 13.0924 23.6916C13.4763 23.2946 13.4657 22.6615 13.0687 22.2776L3.47406 12.9991L26.9951 12.9991C27.5474 12.9991 27.9951 12.5514 27.9951 11.9991C27.9951 11.4468 27.5474 10.9991 26.9951 10.9991L3.47406 10.9991L13.0687 1.72065C13.4657 1.33673 13.4763 0.703649 13.0924 0.306639C12.7085 -0.0903722 12.0754 -0.100979 11.6784 0.282949L0.306303 11.2803C0.111475 11.4687 0.00146487 11.7281 0.00146484 11.9991C0.00146482 12.2701 0.111475 12.5296 0.306303 12.718L11.6784 23.7153Z" fill="#656564"/>
</svg>
