<svg width="26" height="23" viewBox="0 0 26 23" fill="none" xmlns="http://www.w3.org/2000/svg">
<path d="M25.2811 4.06033L17.4811 0.13821C17.3005 0.0473209 17.1013 0 16.8993 0C16.6974 0 16.4982 0.0473209 16.3176 0.13821L9.1 3.76879L1.8811 0.13821C1.68285 0.0385849 1.46258 -0.00841825 1.24118 0.00166543C1.01979 0.0117491 0.804639 0.0785846 0.61616 0.195824C0.427681 0.313064 0.272134 0.476814 0.164293 0.671523C0.0564516 0.866232 -0.000103155 1.08543 1.41247e-07 1.30831L1.41247e-07 17.7694C1.41247e-07 18.2649 0.2782 18.7173 0.7189 18.9395L8.5189 22.8617C8.69951 22.9525 8.89869 22.9999 9.10065 22.9999C9.30261 22.9999 9.50179 22.9525 9.6824 22.8617L16.9 19.2311L24.1189 22.8603C24.3166 22.9609 24.5367 23.0086 24.758 22.9987C24.9793 22.9889 25.1944 22.9219 25.3825 22.8041C25.766 22.5649 26 22.1452 26 21.6916V5.23043C26 4.73494 25.7218 4.28259 25.2811 4.06033ZM10 5.5L16.6175 2.38004V17.6495L10 20.9351V5.5ZM1.5 2L8.27863 5.70928V21.1444L1.5 17.6495V2ZM24.5 21.1444L18 17.8152V2.38004L24.5 5.70928V21.1444Z" fill="#656564"/>
</svg>
