<svg width="26" height="26" viewBox="0 0 26 26" fill="none" xmlns="http://www.w3.org/2000/svg">
<path d="M11.1188 22.2365C13.2898 22.236 15.4057 21.5964 17.2066 20.4073C17.6283 20.1289 18.1935 20.1591 18.5508 20.5164L23.3277 25.293C23.7182 25.6834 24.3513 25.6835 24.7418 25.293L25.2928 24.742C25.6834 24.3514 25.6834 23.7183 25.2928 23.3277L20.5163 18.5514C20.1589 18.194 20.1287 17.6287 20.4073 17.207C21.5971 15.4059 22.2371 13.2896 22.2377 11.1182C22.2377 4.98792 17.2495 0 11.1188 0C4.98819 0 0 4.98792 0 11.1182C0 17.2486 4.98819 22.2365 11.1188 22.2365ZM11.1188 2.77956C15.7179 2.77956 19.458 6.51946 19.458 11.1182C19.458 15.717 15.7179 19.4569 11.1188 19.4569C6.5198 19.4569 2.77971 15.717 2.77971 11.1182C2.77971 6.51946 6.5198 2.77956 11.1188 2.77956Z" fill="#656564"/>
</svg>
