<svg width="18" height="21" viewBox="0 0 18 21" fill="none" xmlns="http://www.w3.org/2000/svg">
<path d="M8.35202 0.601814C8.71 0.243833 9.2904 0.243833 9.64838 0.601814L13.3151 4.26848C13.673 4.62646 13.673 5.20686 13.3151 5.56484C12.9571 5.92282 12.3767 5.92282 12.0187 5.56484L9.91671 3.46286V11.3333C9.91671 11.8396 9.5063 12.25 9.00004 12.25C8.49378 12.25 8.08337 11.8396 8.08337 11.3333V3.46319L5.98172 5.56484C5.62374 5.92282 5.04334 5.92282 4.68536 5.56484C4.32737 5.20686 4.32737 4.62646 4.68536 4.26848L8.35202 0.601814Z" fill="#656564"/>
<path d="M2.25 17.5833V10.0833C2.25 8.84354 0.75 8.98284 0.75 10.0833V17.4167C0.75 18.146 1.03973 18.8455 1.55546 19.3612C2.07118 19.8769 2.77065 20.1667 3.5 20.1667H14.5C15.2293 20.1667 15.9288 19.8769 16.4445 19.3612C16.9603 18.8455 17.25 18.146 17.25 17.4167V10.0833C17.25 8.98284 15.75 8.84353 15.75 10.0833V17.5833C15.75 17.8264 15.6534 18.0596 15.4815 18.2315C15.3096 18.4034 15.0764 18.5 14.8333 18.5H3.16667C2.92355 18.5 2.69039 18.4034 2.51849 18.2315C2.34658 18.0596 2.25 17.8265 2.25 17.5833Z" fill="#656564"/>
</svg>
