<svg width="29" height="29" viewBox="0 0 29 29" fill="none" xmlns="http://www.w3.org/2000/svg">
<path d="M21.7143 13.5387C22.0433 13.3804 22.4048 13.3012 22.7698 13.3077C23.1447 13.3011 23.5162 13.3796 23.8565 13.5372C24.1968 13.6947 24.4969 13.9273 24.7345 14.2175C24.7862 14.282 24.8245 14.3563 24.847 14.4359C24.8696 14.5155 24.876 14.5988 24.8659 14.6809C24.8557 14.763 24.8292 14.8423 24.788 14.914C24.7467 14.9857 24.6915 15.0484 24.6256 15.0985C24.5597 15.1485 24.4845 15.1849 24.4043 15.2054C24.3242 15.2259 24.2407 15.2301 24.1589 15.2178C24.0771 15.2056 23.9986 15.177 23.9279 15.1339C23.8573 15.0908 23.7961 15.034 23.7477 14.9668C23.6247 14.8304 23.4736 14.7223 23.3048 14.6498C23.136 14.5774 22.9534 14.5423 22.7698 14.5471C22.5967 14.542 22.4247 14.5773 22.2676 14.6502C22.1104 14.723 21.9724 14.8314 21.8644 14.9668C21.7653 15.098 21.6182 15.1844 21.4554 15.2071C21.2926 15.2297 21.1275 15.1868 20.9963 15.0877C20.8652 14.9886 20.7788 14.8415 20.7561 14.6787C20.7335 14.5159 20.7764 14.3508 20.8755 14.2197C21.0981 13.9303 21.3854 13.6971 21.7143 13.5387Z" fill="#3E3E3D"/>
<path d="M17.8174 21.7727C18.2768 21.5788 18.7727 21.4867 19.2711 21.5027C20.3809 21.5027 21.4423 21.9334 22.0467 22.6279C22.1007 22.6894 22.1421 22.7611 22.1683 22.8388C22.1945 22.9164 22.2051 22.9985 22.1993 23.0802C22.1936 23.162 22.1717 23.2418 22.135 23.315C22.0982 23.3883 22.0473 23.4535 21.9851 23.5069C21.873 23.6063 21.7284 23.661 21.5786 23.6607C21.4893 23.66 21.4013 23.6399 21.3205 23.602C21.2397 23.5641 21.1681 23.5092 21.1105 23.441C20.7435 23.0168 20.0226 22.7443 19.2733 22.7443C18.8645 22.7443 18.0712 22.8344 17.5459 23.4388C17.4925 23.5002 17.4276 23.5506 17.3547 23.587C17.2819 23.6233 17.2026 23.645 17.1214 23.6507C17.0401 23.6564 16.9586 23.6461 16.8814 23.6203C16.8041 23.5945 16.7328 23.5537 16.6713 23.5003C16.6098 23.4469 16.5595 23.3819 16.5231 23.3091C16.4867 23.2362 16.4651 23.157 16.4594 23.0757C16.4537 22.9945 16.464 22.913 16.4898 22.8357C16.5156 22.7585 16.5564 22.6871 16.6098 22.6257C16.946 22.2575 17.358 21.9665 17.8174 21.7727Z" fill="#3E3E3D"/>
<path d="M19.3171 20.351C19.4814 20.351 19.6391 20.2857 19.7553 20.1695C19.8715 20.0532 19.9368 19.8956 19.9368 19.7312V15.6019C19.9368 15.4376 19.8715 15.2799 19.7553 15.1637C19.6391 15.0475 19.4814 14.9822 19.3171 14.9822C19.1527 14.9822 18.9951 15.0475 18.8789 15.1637C18.7627 15.2799 18.6974 15.4376 18.6974 15.6019V19.729C18.6971 19.8106 18.7129 19.8914 18.7439 19.9669C18.7749 20.0423 18.8205 20.1109 18.8781 20.1687C18.9357 20.2265 19.0041 20.2723 19.0794 20.3036C19.1548 20.3349 19.2355 20.351 19.3171 20.351Z" fill="#3E3E3D"/>
<path fill-rule="evenodd" clip-rule="evenodd" d="M27.9125 7.8422C28.0616 8.15716 28.1415 8.50038 28.147 8.84881C28.1607 9.66228 28.1637 10.0572 28.1686 10.6992C28.1699 10.8775 28.1714 11.075 28.1734 11.3057C28.1734 15.9998 27.4415 20.0434 26.0549 22.9992C24.4924 26.333 22.1695 28.0911 19.3346 28.0911C16.4997 28.0911 14.1768 26.3308 12.6143 22.9992L12.6011 22.9706C11.6503 23.4621 10.5947 23.7162 9.52444 23.7112C6.48734 23.7112 3.98866 21.8213 2.31189 18.2414C0.817512 15.0548 0.0263672 10.6904 0.0263672 5.6359C0.0263672 4.48655 0.0263731 4.09977 0.0461516 2.98119C0.0523396 2.61221 0.13734 2.24881 0.295462 1.91537C0.453583 1.58193 0.681167 1.28615 0.962953 1.04786C1.24474 0.809569 1.57422 0.634271 1.92929 0.533733C2.28436 0.433195 2.65683 0.409736 3.02171 0.464924C5.17133 0.818572 7.34593 0.998627 9.52444 1.00334C12.6648 1.00334 15.0119 0.647324 18.2358 0.106713C18.3172 0.0904638 18.401 0.0907392 18.4823 0.107517C18.5636 0.124295 18.6407 0.157238 18.709 0.204387C18.7774 0.251536 18.8355 0.311933 18.8801 0.38199C18.9246 0.452048 18.9546 0.530336 18.9683 0.612213C18.982 0.69409 18.9791 0.777889 18.9598 0.858626C18.9405 0.939363 18.9051 1.01539 18.8559 1.08221C18.8066 1.14903 18.7444 1.20527 18.673 1.24759C18.6016 1.28992 18.5224 1.31745 18.4401 1.32858C15.1569 1.88238 12.7615 2.24279 9.52444 2.24279C7.2834 2.23893 5.04632 2.05447 2.83492 1.69119C2.64399 1.66029 2.44862 1.6712 2.26232 1.72318C2.07603 1.77516 1.90324 1.86697 1.7559 1.99226C1.60851 2.1168 1.48948 2.27145 1.40685 2.44582C1.32421 2.62018 1.27987 2.81022 1.27681 3.00316C1.25704 4.11473 1.25704 4.49944 1.25704 5.63899V5.64029C1.25704 15.868 4.49851 22.4762 9.51345 22.4762C14.5284 22.4762 17.7677 15.868 17.7677 5.64029V4.10196C17.7771 3.9437 17.8466 3.795 17.962 3.68628C18.0774 3.57755 18.2299 3.517 18.3885 3.517C18.547 3.517 18.6996 3.57755 18.815 3.68628C18.9304 3.795 18.9999 3.9437 19.0093 4.10196V5.64029C19.0093 6.093 19.0005 6.53252 18.9873 6.97204H19.3258C21.3401 6.96731 23.3508 6.8005 25.3384 6.47319C25.6829 6.42077 26.0347 6.44269 26.37 6.53749C26.7053 6.6323 27.0165 6.79778 27.2825 7.02282C27.5486 7.24786 27.7634 7.52725 27.9125 7.8422ZM13.6428 22.3004C14.9679 25.2012 16.9216 26.8494 19.317 26.8494C23.9429 26.8494 26.9251 20.7488 26.9317 11.3013C26.9317 10.2465 26.9317 9.89047 26.9141 8.86419C26.9095 8.69162 26.868 8.52204 26.7921 8.36697C26.7163 8.21189 26.608 8.07493 26.4746 7.96536C26.3448 7.8537 26.1922 7.77167 26.0275 7.72499C25.8628 7.6783 25.6899 7.6681 25.5208 7.69506C23.4715 8.032 21.3983 8.20322 19.3214 8.20709H18.9324C18.6973 12.1738 17.9545 15.6043 16.7194 18.2414C15.8821 20.0214 14.847 21.3818 13.6428 22.3004Z" fill="#3E3E3D"/>
<path d="M13.3092 9.086L13.3127 9.08591L13.3158 9.086H13.3092Z" fill="#3E3E3D"/>
<path d="M13.3127 9.08591C13.5062 9.0809 13.6982 9.1207 13.8737 9.20222C14.0503 9.28422 14.2054 9.4062 14.3267 9.5585C14.4258 9.68964 14.5729 9.77604 14.7357 9.79871C14.8985 9.82138 15.0636 9.77844 15.1948 9.67936C15.3259 9.58028 15.4123 9.43316 15.435 9.27037C15.4576 9.10758 15.4147 8.94244 15.3156 8.8113C15.0796 8.50504 14.7752 8.25815 14.4269 8.09028C14.0786 7.92241 13.6958 7.8382 13.3092 7.84436C12.9121 7.83806 12.5186 7.92155 12.1582 8.0886C11.7979 8.25566 11.4799 8.50196 11.2281 8.80912C11.1789 8.87405 11.1429 8.94803 11.1223 9.02685C11.1017 9.10567 11.0968 9.18778 11.1079 9.26849C11.1191 9.3492 11.146 9.42693 11.1871 9.49724C11.2283 9.56755 11.2829 9.62906 11.3478 9.67826C11.4128 9.72747 11.4868 9.7634 11.5656 9.78401C11.6444 9.80462 11.7265 9.80951 11.8072 9.79839C11.8879 9.78727 11.9657 9.76036 12.036 9.7192C12.1063 9.67804 12.1678 9.62343 12.217 9.5585C12.3543 9.40394 12.5239 9.2815 12.7138 9.19984C12.9027 9.11859 13.1072 9.0797 13.3127 9.08591Z" fill="#3E3E3D"/>
<path d="M7.2202 9.79951C7.0572 9.77664 6.90997 9.68995 6.81089 9.55852C6.69059 9.40674 6.53662 9.28504 6.36117 9.20303C6.18572 9.12103 5.99358 9.08096 5.79998 9.08603C5.59346 9.07994 5.38811 9.11908 5.19831 9.2007C5.0085 9.28231 4.83883 9.40444 4.70118 9.55852C4.65286 9.62568 4.59159 9.68249 4.52097 9.72559C4.45035 9.7687 4.37182 9.79724 4.29 9.80951C4.20817 9.82177 4.12472 9.81753 4.04456 9.79703C3.9644 9.77653 3.88916 9.7402 3.82327 9.69016C3.75738 9.64012 3.70218 9.57739 3.66092 9.50567C3.61966 9.43396 3.59319 9.35472 3.58304 9.2726C3.5729 9.19049 3.57931 9.10717 3.60187 9.02757C3.62444 8.94798 3.66272 8.87371 3.71445 8.80914C3.96629 8.50199 4.28426 8.25568 4.64463 8.08863C5.00499 7.92157 5.39843 7.83808 5.79558 7.84439C6.18213 7.83874 6.56468 7.92317 6.91293 8.091C7.26119 8.25883 7.56558 8.50545 7.802 8.81133C7.90108 8.94276 7.9439 9.10817 7.92103 9.27117C7.89815 9.43417 7.81146 9.5814 7.68003 9.68048C7.5486 9.77957 7.3832 9.82239 7.2202 9.79951Z" fill="#3E3E3D"/>
<path d="M11.4303 18.7634C10.8639 19.0768 10.2269 19.2405 9.57952 19.2391C8.91306 19.2421 8.2562 19.0803 7.66731 18.7682C7.07843 18.4561 6.57577 18.0034 6.20399 17.4503C6.15955 17.382 6.12899 17.3057 6.11405 17.2256C6.0991 17.1456 6.10008 17.0633 6.11692 16.9837C6.13375 16.904 6.16611 16.8284 6.21216 16.7612C6.25821 16.694 6.31705 16.6366 6.3853 16.5921C6.45355 16.5477 6.52988 16.5171 6.60994 16.5022C6.69001 16.4872 6.77224 16.4882 6.85193 16.505C6.93162 16.5219 7.00721 16.5542 7.07439 16.6003C7.14157 16.6463 7.19901 16.7052 7.24346 16.7734C7.50379 17.1519 7.85229 17.4612 8.2589 17.6749C8.66551 17.8885 9.118 18 9.57732 17.9997C10.0182 18.0018 10.4522 17.89 10.8372 17.6752C11.2222 17.4604 11.5452 17.1498 11.7749 16.7734C11.8644 16.6353 12.0051 16.5384 12.166 16.5039C12.327 16.4695 12.495 16.5005 12.6331 16.5899C12.7712 16.6794 12.8682 16.8201 12.9026 16.981C12.937 17.1419 12.9061 17.31 12.8166 17.4481C12.4739 17.9973 11.9967 18.45 11.4303 18.7634Z" fill="#3E3E3D"/>
<path d="M10.1333 14.7341V10.2751C10.1239 10.1168 10.0544 9.96815 9.93901 9.85942C9.82362 9.7507 9.67106 9.69014 9.51251 9.69014C9.35396 9.69014 9.20141 9.7507 9.08601 9.85942C8.97062 9.96815 8.90111 10.1168 8.89169 10.2751V14.7341C8.90111 14.8923 8.97062 15.041 9.08601 15.1497C9.20141 15.2585 9.35396 15.319 9.51251 15.319C9.67106 15.319 9.82362 15.2585 9.93901 15.1497C10.0544 15.041 10.1239 14.8923 10.1333 14.7341Z" fill="#3E3E3D"/>
</svg>
