<svg width="21" height="16" viewBox="0 0 21 16" fill="none" xmlns="http://www.w3.org/2000/svg">
<path d="M14.25 5.75H12.75V10.25H14.25V5.75Z" fill="#656564"/>
<path fill-rule="evenodd" clip-rule="evenodd" d="M20.7803 6.28033C20.6397 6.42098 20.4489 6.5 20.25 6.5C19.8522 6.5 19.4706 6.65804 19.1893 6.93934C18.908 7.22064 18.75 7.60218 18.75 8C18.75 8.39782 18.908 8.77936 19.1893 9.06066C19.4706 9.34196 19.8522 9.5 20.25 9.5C20.4489 9.5 20.6397 9.57902 20.7803 9.71967C20.921 9.86032 21 10.0511 21 10.25V14C21 14.3978 20.842 14.7794 20.5607 15.0607C20.2794 15.342 19.8978 15.5 19.5 15.5H1.5C1.10218 15.5 0.720644 15.342 0.43934 15.0607C0.158035 14.7794 0 14.3978 0 14V10.25C0 10.0511 0.0790176 9.86032 0.21967 9.71967C0.360322 9.57902 0.551088 9.5 0.75 9.5C1.14782 9.5 1.52936 9.34196 1.81066 9.06066C2.09196 8.77936 2.25 8.39782 2.25 8C2.25 7.60218 2.09196 7.22064 1.81066 6.93934C1.52936 6.65804 1.14782 6.5 0.75 6.5C0.551088 6.5 0.360322 6.42098 0.21967 6.28033C0.0790176 6.13968 0 5.94891 0 5.75V2C0 1.60218 0.158035 1.22064 0.43934 0.93934C0.720644 0.658035 1.10218 0.5 1.5 0.5H19.5C19.8978 0.5 20.2794 0.658035 20.5607 0.93934C20.842 1.22064 21 1.60218 21 2V5.75C21 5.94891 20.921 6.13968 20.7803 6.28033ZM19.5 14V10.9025C18.858 10.7347 18.2898 10.3588 17.8842 9.8336C17.4786 9.3084 17.2586 8.66356 17.2586 8C17.2586 7.33644 17.4786 6.6916 17.8842 6.1664C18.2898 5.64121 18.858 5.2653 19.5 5.0975V2H14.25V4.25H12.75V2H1.5V5.0975C2.142 5.2653 2.71025 5.64121 3.11582 6.1664C3.52139 6.6916 3.74139 7.33644 3.74139 8C3.74139 8.66356 3.52139 9.3084 3.11582 9.8336C2.71025 10.3588 2.142 10.7347 1.5 10.9025V14H12.75V11.75H14.25V14H19.5Z" fill="#656564"/>
</svg>
