<svg width="20" height="17" viewBox="0 0 20 17" fill="none" xmlns="http://www.w3.org/2000/svg">
<path fill-rule="evenodd" clip-rule="evenodd" d="M20 2.59062C19.2647 2.91727 18.4734 3.13725 17.6435 3.23657C18.4908 2.72861 19.1414 1.92466 19.4474 0.966726C18.6554 1.43736 17.7761 1.77801 16.8422 1.96266C16.0936 1.16538 15.0263 0.666748 13.8471 0.666748C11.5812 0.666748 9.74401 2.50396 9.74401 4.76981C9.74401 5.09112 9.78068 5.40443 9.85068 5.70508C6.44024 5.53442 3.41711 3.90053 1.39324 1.41803C1.03993 2.02399 0.837944 2.72862 0.837944 3.48057C0.837944 4.9038 1.56123 6.15972 2.66316 6.89567C1.98987 6.87434 1.35791 6.68968 0.803945 6.38237V6.4337C0.803945 8.42223 2.21918 10.0801 4.09506 10.4581C3.75108 10.5514 3.38844 10.6021 3.01447 10.6021C2.74982 10.6021 2.4925 10.5761 2.24185 10.5281C2.76381 12.158 4.27971 13.3446 6.07493 13.3779C4.67102 14.4778 2.90181 15.1344 0.979267 15.1344C0.647289 15.1344 0.320645 15.1151 0 15.0764C1.81588 16.2404 3.9724 16.9203 6.28958 16.9203C13.8364 16.9203 17.9635 10.6681 17.9635 5.24644C17.9635 5.06845 17.9601 4.89114 17.9515 4.71581C18.7541 4.13585 19.45 3.41323 20 2.59062Z" fill="white"/>
</svg>
