<svg width="22" height="16" viewBox="0 0 22 16" fill="none" xmlns="http://www.w3.org/2000/svg">
<path fill-rule="evenodd" clip-rule="evenodd" d="M20.4169 1.64839C20.7495 1.98097 20.9891 2.39488 21.112 2.8489C21.8194 5.69643 21.656 10.1937 21.1257 13.1511C21.0029 13.6051 20.7632 14.019 20.4306 14.3516C20.0981 14.6842 19.6841 14.9238 19.2301 15.0467C17.568 15.5 10.8785 15.5 10.8785 15.5C10.8785 15.5 4.18893 15.5 2.52684 15.0467C2.07282 14.9238 1.65891 14.6842 1.32633 14.3516C0.993746 14.019 0.754093 13.6051 0.631237 13.1511C-0.0803017 10.3159 0.114754 5.81594 0.617502 2.86264C0.740356 2.40862 0.980009 1.99471 1.31259 1.66212C1.64518 1.32954 2.05909 1.08989 2.5131 0.967036C4.17519 0.513733 10.8647 0.5 10.8647 0.5C10.8647 0.5 17.5543 0.5 19.2164 0.953295C19.6704 1.07615 20.0843 1.31581 20.4169 1.64839ZM14.2851 8L8.73563 11.2143V4.78571L14.2851 8Z" fill="white"/>
</svg>
