<svg width="163" height="102" viewBox="0 0 163 102" fill="none" xmlns="http://www.w3.org/2000/svg">
<path d="M147.353 101.453H-0.0380859V41.2968H162.367V86.4531C162.364 90.4304 160.782 94.2441 157.967 97.0565C155.151 99.8689 151.334 101.45 147.353 101.453Z" fill="#4B4E50"/>
<g style="mix-blend-mode:multiply">
<g style="mix-blend-mode:multiply">
<path d="M126.763 21.0435H98.9092V22.35H126.763V21.0435Z" fill="#EBB830"/>
</g>
<g style="mix-blend-mode:multiply">
<path d="M100.032 24.0796V24.4788V36.1695H101.91V24.4788H103.986V36.1695H105.864V24.4788H107.941V36.1695H109.819V24.4788H111.895V36.1695H113.773V24.4788H115.849V36.1695H117.727V24.4788H119.803V36.1695H121.681V24.4788H123.757V36.1695H125.635V24.4788V22.8345H100.032V24.0796Z" fill="#EBB830"/>
</g>
</g>
<g style="mix-blend-mode:multiply">
<g style="mix-blend-mode:multiply">
<path d="M39.6748 36.1694H64.1375V23.926H39.6748V36.1694ZM46.4598 36.1694H40.6241V31.506C40.6107 31.1148 40.6762 30.725 40.8168 30.3596C40.9574 29.9943 41.1702 29.6609 41.4425 29.3794C41.7148 29.098 42.041 28.8741 42.4016 28.7213C42.7623 28.5684 43.1501 28.4896 43.5419 28.4896C43.9337 28.4896 44.3215 28.5684 44.6822 28.7213C45.0429 28.8741 45.3691 29.098 45.6414 29.3794C45.9136 29.6609 46.1264 29.9943 46.267 30.3596C46.4076 30.725 46.4732 31.1148 46.4598 31.506V36.1694ZM63.0517 36.1694H57.2126V31.506C57.2126 30.7325 57.5202 29.9906 58.0677 29.4436C58.6152 28.8966 59.3578 28.5893 60.1321 28.5893C60.9064 28.5893 61.649 28.8966 62.1965 29.4436C62.7441 29.9906 63.0517 30.7325 63.0517 31.506V36.1694ZM54.8223 36.1694H48.9866V28.006C49.0125 27.2501 49.3313 26.5339 49.8756 26.0083C50.42 25.4828 51.1474 25.189 51.9045 25.189C52.6615 25.189 53.3889 25.4828 53.9333 26.0083C54.4777 26.5339 54.7964 27.2501 54.8223 28.006V36.1694ZM64.1375 22.923H39.6748V21.9303H64.1375V22.923ZM64.1375 8.93642H39.6748V7.93347H64.1375V8.93642ZM62.5736 21.0365H41.2387V9.80973H62.5736V21.0365ZM42.0207 20.3543H45.6437V12.2932H42.0207V20.3543ZM46.0602 20.3543H49.6832V12.2932H46.0602V20.3543ZM50.0964 20.3543H53.7194V12.2932H50.0964V20.3543ZM54.1359 20.3543H57.7589V12.2932H54.1359V20.3543ZM58.1721 20.3543H61.7985V12.2932H58.1823L58.1721 20.3543Z" fill="#00726F"/>
</g>
</g>
<path d="M17.1585 95.193L11.0599 87.2786L8.69013 90.1885V95.193H6.86328V76.949H8.69013V87.4287H8.73793L17.1073 76.949H19.4498L12.2243 85.8492L19.4532 95.193H17.1585Z" fill="white"/>
<path d="M31.9165 81.585H33.7434V88.5135C33.7434 93.1223 31.0526 95.5137 27.5218 95.5137C24.0457 95.5137 21.3037 93.1973 21.3037 88.4624V81.585H23.1306V88.5613C23.1306 92.2353 25.1042 93.8626 27.5218 93.8626C29.6218 93.8626 31.9165 92.556 31.9165 88.5852V81.585ZM21.3037 80.0567V76.949C21.7882 76.949 22.2529 77.1413 22.5955 77.4835C22.9381 77.8258 23.1306 78.29 23.1306 78.7741V80.0567H21.3037ZM31.9165 80.0567V78.7741C31.9165 78.29 32.109 77.8258 32.4516 77.4835C32.7942 77.1413 33.2588 76.949 33.7434 76.949V80.0567H31.9165Z" fill="white"/>
<path d="M37.6426 95.193V76.949H39.4694V93.5419H47.0193V95.193H37.6426Z" fill="white"/>
<path d="M50.2298 95.193V78.6001H46.0332V76.949H56.226V78.6001H52.0567V95.193H50.2298Z" fill="white"/>
<path d="M68.8628 81.585H70.6862V88.5135C70.6862 93.1223 67.9989 95.5137 64.4681 95.5137C60.9373 95.5137 58.25 93.1973 58.25 88.4624V81.585H60.0768V88.5613C60.0768 92.2353 62.0505 93.8626 64.4681 93.8626C66.5681 93.8626 68.8628 92.556 68.8628 88.5852V81.585ZM58.25 80.0567V76.949C58.7342 76.9499 59.1984 77.1425 59.5408 77.4845C59.8832 77.8266 60.0759 78.2903 60.0768 78.7741V80.0567H58.25ZM68.8628 80.0567V78.7741C68.8628 78.2906 69.0548 77.8269 69.3967 77.4847C69.7385 77.1426 70.2023 76.9499 70.6862 76.949V80.0567H68.8628Z" fill="white"/>
<path d="M84.1126 95.193L77.9184 86.9341H79.694C82.9243 86.9341 84.8502 85.283 84.8502 82.7927C84.8502 81.0665 83.7882 78.6001 79.595 78.6001H76.1188V95.193H74.292V76.949H79.7964C84.5565 76.949 86.6804 79.7599 86.6804 82.8438C86.6804 85.8015 84.4575 88.1417 81.2511 88.3907L86.4073 95.193H84.1126Z" fill="white"/>
<path d="M100.75 95.193V89.1037L94.4053 76.949H96.4268L101.634 87.1831L106.988 76.949H108.989L102.573 89.1037V95.193H100.75Z" fill="white"/>
<path d="M119.704 95.5137C114.715 95.5137 110.054 91.4712 110.054 86.1699C110.058 84.9093 110.311 83.662 110.799 82.4994C111.287 81.3367 111.999 80.2816 112.895 79.3943C113.792 78.5071 114.855 77.8052 116.023 77.3288C117.191 76.8524 118.442 76.6109 119.704 76.6181C125.007 76.6181 129.377 80.8584 129.377 86.0607C129.377 91.2631 125.007 95.5137 119.704 95.5137ZM119.676 78.2794C115.357 78.2794 111.877 81.9296 111.877 86.1699C111.877 90.2874 115.456 93.8626 119.704 93.8626C121.772 93.8589 123.754 93.0346 125.214 91.5708C126.674 90.107 127.493 88.1238 127.489 86.0573C127.485 83.9909 126.66 82.0105 125.195 80.5519C123.73 79.0932 121.745 78.2758 119.676 78.2794Z" fill="white"/>
<path d="M132.462 95.193V76.949H134.289V93.5419H141.842V95.193H132.462Z" fill="white"/>
<path d="M154.302 76.949H156.129V88.5135C156.129 93.1223 153.441 95.5137 149.911 95.5137C146.431 95.5137 143.692 93.1973 143.692 88.4624V76.949H145.519V88.5476C145.519 92.2217 147.493 93.8489 149.911 93.8489C152.007 93.8489 154.302 92.5424 154.302 88.5715V76.949Z" fill="white"/>
<path d="M6.86621 70.5629V46.0249H17.3902C19.6234 46.0249 21.481 46.5719 22.963 47.6658C24.4449 48.7597 25.1871 50.2902 25.1893 52.2575C25.1893 54.6022 24.2264 56.3716 22.3005 57.5656C25.2007 58.6276 26.6497 60.5607 26.6474 63.3649C26.6474 65.6209 25.8074 67.3835 24.1274 68.6525C22.4474 69.9216 20.4111 70.5572 18.0185 70.5595L6.86621 70.5629ZM15.9936 51.4285H13.5726V55.4096H15.9936C16.6215 55.4427 17.2401 55.2476 17.7351 54.8604C17.9603 54.6536 18.1356 54.3985 18.248 54.1143C18.3604 53.8301 18.4068 53.5242 18.3839 53.2195C18.3917 52.9632 18.3352 52.7091 18.2195 52.4803C18.1038 52.2515 17.9326 52.0552 17.7215 51.9095C17.2114 51.5697 16.6061 51.4012 15.9936 51.4285ZM16.7585 60.3151H13.5726V65.1559H16.7585C17.511 65.1854 18.2502 64.9513 18.8483 64.4941C19.1255 64.2663 19.3451 63.9765 19.4892 63.6482C19.6334 63.3198 19.6981 62.9622 19.6781 62.6042C19.695 62.273 19.6279 61.9429 19.4828 61.6447C19.3377 61.3465 19.1194 61.0898 18.8483 60.8985C18.2311 60.4878 17.4994 60.2835 16.7585 60.3151Z" fill="white"/>
<path d="M42.1504 46.0249L50.4139 70.5629H46.89C45.8449 70.5635 44.8271 70.2297 43.9858 69.6102C43.1445 68.9908 42.524 68.1183 42.2153 67.1208H34.8464C34.5387 68.1169 33.9199 68.9885 33.0805 69.6078C32.2412 70.2272 31.2255 70.5619 30.182 70.5629H26.9893L35.2869 46.0249H42.1504ZM36.3762 62.205H40.6889L38.5309 55.3414L36.3762 62.205Z" fill="white"/>
<path d="M69.3004 52.5236L62.5633 53.6527C62.4313 52.2131 61.7005 51.4945 60.3711 51.4968C59.8389 51.4638 59.3118 51.6157 58.8789 51.9266C58.7107 52.0547 58.5751 52.2206 58.4832 52.4109C58.3912 52.6012 58.3454 52.8104 58.3496 53.0216C58.3496 53.7721 58.8345 54.2941 59.8077 54.5806L63.2599 55.604C65.4976 56.2658 67.0968 57.1892 68.0575 58.3741C69.0489 59.6351 69.5606 61.2064 69.5019 62.8089C69.5019 65.0422 68.8258 66.8445 67.4736 68.2159C66.1214 69.5872 64.3514 70.4378 62.1638 70.7676L58.2164 70.7335C56.3386 70.4961 54.5719 69.7132 53.1354 68.482C51.7864 67.2867 50.9338 65.6305 50.7451 63.8391L57.5164 62.5769C57.826 64.278 58.8003 65.1297 60.4394 65.132C61.0456 65.174 61.6451 64.9837 62.116 64.5998C62.2984 64.4447 62.4449 64.2518 62.5451 64.0344C62.6454 63.817 62.697 63.5804 62.6965 63.341C62.7067 63.1502 62.6781 62.9593 62.6124 62.7799C62.5466 62.6005 62.4451 62.4362 62.314 62.2971C61.8806 61.9469 61.3778 61.6923 60.8389 61.5501L57.1852 60.3561C55.15 59.6943 53.7068 58.7846 52.8554 57.627C51.9679 56.3683 51.5181 54.8536 51.5749 53.315C51.549 52.2579 51.7715 51.2096 52.2246 50.2539C52.6777 49.2983 53.3486 48.4621 54.1837 47.8125C55.9503 46.3851 58.168 45.6328 60.4394 45.6906C62.7613 45.6906 64.7305 46.2876 66.3468 47.4816C67.963 48.6755 68.9476 50.3562 69.3004 52.5236Z" fill="white"/>
<path d="M79.5232 46.0249V55.8394L85.1984 46.0249H93.0521L85.9804 57.5315L93.2161 70.5629H85.2633L79.5232 59.9876V70.5629H72.7178V46.0249H79.5232Z" fill="white"/>
<path d="M95.2246 70.5629V46.0249H111.489V52.1927H102.027V55.2629H110.358V61.2635H102.027V64.3917H111.653V70.5595L95.2246 70.5629Z" fill="white"/>
<path d="M115.238 70.5629V46.0249C116.945 46.0252 118.624 46.4586 120.117 47.2844C121.61 48.1103 122.869 49.3014 123.775 50.7462L128.716 58.6265V46.0249H135.153V70.5629H135.108C133.403 70.5646 131.725 70.1336 130.232 69.3102C128.738 68.4867 127.479 67.2979 126.572 65.8552L121.695 58.0602V70.5629H115.238Z" fill="white"/>
<path d="M143.583 70.5629V52.4826H137.84V46.001H156.129V52.4826H150.379V70.5629H143.583Z" fill="white"/>
<g style="mix-blend-mode:multiply">
<path d="M63.6458 25.0381C62.9102 25.0375 62.1853 25.2131 61.5317 25.5503C60.8781 25.8874 60.315 26.3763 59.8896 26.9758H67.4019C66.9767 26.3761 66.4137 25.8871 65.7601 25.5499C65.1065 25.2127 64.3814 25.0372 63.6458 25.0381Z" fill="#488ABB"/>
</g>
<g style="mix-blend-mode:multiply">
<path d="M71.8714 25.0381C71.1359 25.0378 70.411 25.2135 69.7575 25.5507C69.104 25.8878 68.5408 26.3765 68.1152 26.9757H75.6275C75.2017 26.3767 74.6385 25.8881 73.9851 25.551C73.3316 25.2139 72.6068 25.038 71.8714 25.0381Z" fill="#488ABB"/>
</g>
<g style="mix-blend-mode:multiply">
<path d="M59.8896 27.6512V36.1797H65.4624V32.2736C65.4853 31.6805 65.7373 31.1193 66.1654 30.7077C66.5935 30.2962 67.1646 30.0663 67.7588 30.0663C68.3529 30.0663 68.924 30.2962 69.3521 30.7077C69.7803 31.1193 70.0322 31.6805 70.0551 32.2736V36.1694H75.6279V27.641L59.8896 27.6512ZM63.3794 33.5631H61.2145V30.892H63.3794V33.5631ZM74.3064 33.5631H72.1449V30.892H74.3064V33.5631Z" fill="#488ABB"/>
</g>
<g style="mix-blend-mode:multiply">
<g style="mix-blend-mode:multiply">
<path d="M124.345 16.1855H123.484V18.1983H124.345V36.1694H125.438V19.631H128.012V36.1694H129.102V18.1983H129.965V16.1855H129.102H124.345Z" fill="#00726F"/>
</g>
<g style="mix-blend-mode:multiply">
<path d="M126.721 0.360246C124.39 0.363861 122.157 1.2913 120.51 2.93892C118.863 4.58654 117.938 6.81965 117.938 9.14793H135.534C135.534 7.99248 135.306 6.84837 134.863 5.78108C134.42 4.7138 133.771 3.7443 132.952 2.92806C132.133 2.11182 131.162 1.46488 130.092 1.02426C129.023 0.583646 127.878 0.358003 126.721 0.360246Z" fill="#00726F"/>
</g>
<g style="mix-blend-mode:multiply">
<path d="M116.795 9.91895C116.798 10.8023 116.919 11.6812 117.157 12.5321H136.279C136.51 11.6802 136.624 10.8013 136.621 9.91895H116.795Z" fill="#00726F"/>
</g>
<g style="mix-blend-mode:multiply">
<path d="M133.442 13.187H120.005V15.3259H133.442V13.187Z" fill="#00726F"/>
</g>
</g>
<g style="mix-blend-mode:multiply">
<g style="mix-blend-mode:multiply">
<path d="M32.7564 16.3459V19.0375H30.6802V16.3459H27.87V19.0375H25.7938V16.3459H22.9836V19.0375H20.9074V16.3459H18.1006V19.0375V19.2286V36.1694H35.5666V19.2286V19.0375V16.3459H32.7564Z" fill="#488ABB"/>
</g>
<g style="mix-blend-mode:multiply">
<path d="M14.6211 10.1816H12.545V7.29895H9.73471V10.1816H7.65859V7.29895H4.84831V10.1816H2.77219V7.29895H-0.0380859V10.1816V10.5432V36.1694H17.4314V10.1816V7.29895H14.6211V10.1816Z" fill="#488ABB"/>
</g>
</g>
<g style="mix-blend-mode:multiply">
<g style="mix-blend-mode:multiply">
<g style="mix-blend-mode:multiply">
<path d="M69.8502 28.3096H57.7725V28.8622H69.8502V28.3096Z" fill="#F8A895"/>
</g>
<g style="mix-blend-mode:multiply">
<path d="M69.8501 21.4971H57.7725V22.0497H69.8501V21.4971Z" fill="#F8A895"/>
</g>
<g style="mix-blend-mode:multiply">
<path d="M57.7725 28.3096V36.1557H58.4383V31.6868C58.4383 31.4906 58.477 31.2963 58.5522 31.115C58.6273 30.9337 58.7375 30.769 58.8764 30.6303C59.0153 30.4915 59.1801 30.3815 59.3616 30.3064C59.5431 30.2313 59.7375 30.1926 59.934 30.1926C60.1304 30.1926 60.3248 30.2313 60.5063 30.3064C60.6878 30.3815 60.8526 30.4915 60.9915 30.6303C61.1304 30.769 61.2406 30.9337 61.3157 31.115C61.3909 31.2963 61.4296 31.4906 61.4296 31.6868V36.1694H62.215V31.506C62.215 31.1713 62.3481 30.8502 62.585 30.6135C62.8219 30.3768 63.1433 30.2438 63.4784 30.2438C63.8135 30.2438 64.1348 30.3768 64.3718 30.6135C64.6087 30.8502 64.7418 31.1713 64.7418 31.506V36.1694H65.6399V31.6868C65.6399 31.2905 65.7974 30.9105 66.0779 30.6303C66.3584 30.3501 66.7388 30.1926 67.1355 30.1926C67.5322 30.1926 67.9126 30.3501 68.1931 30.6303C68.4735 30.9105 68.6311 31.2905 68.6311 31.6868V36.1694H69.1843V28.3232L57.7725 28.3096Z" fill="#F8A895"/>
</g>
<g style="mix-blend-mode:multiply">
<path d="M57.7725 28.0879H69.1843V22.3329H57.7725V28.0879ZM64.7247 26.3174H62.1979V24.175C62.1979 23.8403 62.331 23.5192 62.5679 23.2825C62.8049 23.0458 63.1262 22.9128 63.4613 22.9128C63.7964 22.9128 64.1177 23.0458 64.3547 23.2825C64.5916 23.5192 64.7247 23.8403 64.7247 24.175V26.3174ZM68.4023 26.3174H65.8789V24.175C65.87 24.004 65.896 23.8329 65.9554 23.6722C66.0148 23.5116 66.1063 23.3646 66.2243 23.2404C66.3424 23.1162 66.4845 23.0173 66.642 22.9497C66.7995 22.8821 66.9692 22.8472 67.1406 22.8472C67.3121 22.8472 67.4817 22.8821 67.6392 22.9497C67.7968 23.0173 67.9389 23.1162 68.0569 23.2404C68.175 23.3646 68.2664 23.5116 68.3258 23.6722C68.3852 23.8329 68.4112 24.004 68.4023 24.175V26.3174ZM61.1188 26.3174H58.5954V24.175C58.5865 24.004 58.6125 23.8329 58.6719 23.6722C58.7313 23.5116 58.8228 23.3646 58.9408 23.2404C59.0589 23.1162 59.201 23.0173 59.3585 22.9497C59.516 22.8821 59.6857 22.8472 59.8571 22.8472C60.0286 22.8472 60.1982 22.8821 60.3557 22.9497C60.5133 23.0173 60.6554 23.1162 60.7734 23.2404C60.8915 23.3646 60.983 23.5116 61.0423 23.6722C61.1017 23.8329 61.1278 24.004 61.1188 24.175V26.3174Z" fill="#F8A895"/>
</g>
</g>
<g style="mix-blend-mode:multiply">
<path d="M57.3999 22.3329H54.3643V36.1694H57.3999V22.3329Z" fill="#F8A895"/>
</g>
<g style="mix-blend-mode:multiply">
<path d="M57.3999 14.0637H54.3643V18.4985H57.3999V14.0637Z" fill="#F8A895"/>
</g>
<g style="mix-blend-mode:multiply">
<path d="M57.5914 11.2289H54.1768L55.8841 3.33496L57.5914 11.2289Z" fill="#F8A895"/>
</g>
<g style="mix-blend-mode:multiply">
<path d="M57.3999 18.8806H54.3643V21.9543H57.3999V18.8806Z" fill="#F8A895"/>
</g>
<g style="mix-blend-mode:multiply">
<path d="M57.3999 11.6075H54.3643V13.6851H57.3999V11.6075Z" fill="#F8A895"/>
</g>
</g>
<g style="mix-blend-mode:multiply">
<g style="mix-blend-mode:multiply">
<path d="M140.137 26.5562H128.066V27.1873H140.137V26.5562Z" fill="#514F67"/>
</g>
<g style="mix-blend-mode:multiply">
<path d="M128.066 36.1694H129.32V28.8315H133.475V36.1694H134.732V28.8315H139.051V36.1694H140.141V27.4397H128.066V36.1694Z" fill="#514F67"/>
</g>
<g style="mix-blend-mode:multiply">
<path d="M134.855 26.3003H140.141L141.521 25.1643H134.855H126.688L128.067 26.3003H134.855Z" fill="#514F67"/>
</g>
</g>
<g style="mix-blend-mode:multiply">
<g style="mix-blend-mode:multiply">
<path d="M139.109 30.8681V19.1194H132.075V30.8681H139.109ZM133.465 19.7505H137.723V22.3295H133.462L133.465 19.7505ZM133.465 23.7657H137.723V26.3447H133.462L133.465 23.7657ZM133.465 27.7809H137.723V30.3599H133.462L133.465 27.7809Z" fill="#488ABB"/>
</g>
<g style="mix-blend-mode:multiply">
<path d="M148.831 30.8681H155.858V19.1194H148.831V30.8681ZM150.217 19.7505H154.476V22.3295H150.217V19.7505ZM150.217 23.7657H154.476V26.3447H150.217V23.7657ZM150.217 27.7809H154.476V30.3599H150.217V27.7809Z" fill="#488ABB"/>
</g>
<g style="mix-blend-mode:multiply">
<path d="M148.217 19.1194H139.718V30.8681H148.217V19.1194ZM142.04 30.3769H141.015V27.7979H142.04V30.3769ZM142.04 26.3515H141.015V23.7691H142.04V26.3515ZM142.04 22.3465H141.015V19.7675H142.04V22.3465ZM143.607 30.3769H142.583V27.7979H143.607V30.3769ZM143.607 26.3515H142.583V23.7691H143.607V26.3515ZM143.607 22.3465H142.583V19.7675H143.607V22.3465ZM145.174 30.3769H144.15V27.7979H145.174V30.3769ZM145.174 26.3515H144.15V23.7691H145.174V26.3515ZM145.174 22.3465H144.15V19.7675H145.174V22.3465ZM146.738 30.3769H145.714V27.7979H146.738V30.3769ZM146.738 26.3515H145.714V23.7691H146.738V26.3515ZM146.738 22.3465H145.714V19.7675H146.738V22.3465Z" fill="#488ABB"/>
</g>
<g style="mix-blend-mode:multiply">
<path d="M139.106 17.8265L132.076 18.2802L131.557 18.7681H139.106V17.8265Z" fill="#488ABB"/>
</g>
<g style="mix-blend-mode:multiply">
<path d="M155.862 18.2802L148.831 17.8265V18.7681H156.381L155.862 18.2802Z" fill="#488ABB"/>
</g>
<g style="mix-blend-mode:multiply">
<path d="M148.22 17.8265H139.721V18.7681H148.22V17.8265Z" fill="#488ABB"/>
</g>
<g style="mix-blend-mode:multiply">
<path d="M132.075 36.1695H132.939V33.4404C132.939 33.2788 132.97 33.1188 133.032 32.9694C133.093 32.82 133.184 32.6842 133.298 32.5698C133.412 32.4554 133.548 32.3646 133.697 32.3027C133.847 32.2408 134.007 32.2089 134.168 32.2089H134.267C134.429 32.2089 134.589 32.2408 134.739 32.3027C134.888 32.3646 135.024 32.4554 135.138 32.5698C135.252 32.6842 135.343 32.82 135.404 32.9694C135.466 33.1188 135.497 33.2788 135.497 33.4404V36.1695H136.18V33.4404C136.179 33.2788 136.211 33.1188 136.272 32.9694C136.334 32.82 136.424 32.6842 136.538 32.5698C136.653 32.4554 136.788 32.3646 136.938 32.3027C137.087 32.2408 137.247 32.2089 137.409 32.2089H137.508C137.67 32.2089 137.83 32.2408 137.979 32.3027C138.129 32.3646 138.264 32.4554 138.378 32.5698C138.493 32.6842 138.583 32.82 138.645 32.9694C138.706 33.1188 138.738 33.2788 138.737 33.4404V36.1695H139.403V33.4404C139.403 33.2788 139.434 33.1188 139.496 32.9694C139.557 32.82 139.648 32.6842 139.762 32.5698C139.876 32.4554 140.012 32.3646 140.161 32.3027C140.311 32.2408 140.471 32.2089 140.632 32.2089H140.731C140.893 32.2089 141.053 32.2408 141.203 32.3027C141.352 32.3646 141.488 32.4554 141.602 32.5698C141.716 32.6842 141.807 32.82 141.868 32.9694C141.93 33.1188 141.961 33.2788 141.961 33.4404V36.1695H142.644V33.4404C142.643 33.2788 142.675 33.1188 142.736 32.9694C142.798 32.82 142.888 32.6842 143.002 32.5698C143.117 32.4554 143.252 32.3646 143.402 32.3027C143.551 32.2408 143.711 32.2089 143.873 32.2089H143.972C144.134 32.2089 144.294 32.2408 144.443 32.3027C144.592 32.3646 144.728 32.4554 144.842 32.5698C144.957 32.6842 145.047 32.82 145.109 32.9694C145.17 33.1188 145.202 33.2788 145.201 33.4404V36.1695H145.884V33.4404C145.884 33.2788 145.915 33.1188 145.977 32.9694C146.038 32.82 146.129 32.6842 146.243 32.5698C146.357 32.4554 146.493 32.3646 146.642 32.3027C146.792 32.2408 146.952 32.2089 147.113 32.2089H147.212C147.374 32.2089 147.534 32.2408 147.684 32.3027C147.833 32.3646 147.969 32.4554 148.083 32.5698C148.197 32.6842 148.288 32.82 148.349 32.9694C148.411 33.1188 148.442 33.2788 148.442 33.4404V36.1695H149.125V33.4404C149.124 33.2788 149.156 33.1188 149.217 32.9694C149.279 32.82 149.369 32.6842 149.483 32.5698C149.598 32.4554 149.733 32.3646 149.883 32.3027C150.032 32.2408 150.192 32.2089 150.354 32.2089H150.378C150.54 32.2089 150.7 32.2408 150.849 32.3027C150.998 32.3646 151.134 32.4554 151.248 32.5698C151.362 32.6842 151.453 32.82 151.515 32.9694C151.576 33.1188 151.608 33.2788 151.607 33.4404V36.1695H152.29V33.4404C152.29 33.2788 152.321 33.1188 152.383 32.9694C152.444 32.82 152.535 32.6842 152.649 32.5698C152.763 32.4554 152.899 32.3646 153.048 32.3027C153.197 32.2408 153.358 32.2089 153.519 32.2089H153.618C153.78 32.2089 153.94 32.2408 154.09 32.3027C154.239 32.3646 154.375 32.4554 154.489 32.5698C154.603 32.6842 154.693 32.82 154.755 32.9694C154.817 33.1188 154.848 33.2788 154.848 33.4404V36.1695H155.872V31.2708H132.075V36.1695Z" fill="#488ABB"/>
</g>
</g>
<path d="M60.077 74.6088C61.8648 74.6088 63.3141 73.1609 63.3141 71.3748C63.3141 69.5888 61.8648 68.1409 60.077 68.1409C58.2891 68.1409 56.8398 69.5888 56.8398 71.3748C56.8398 73.1609 58.2891 74.6088 60.077 74.6088Z" fill="white"/>
<g style="mix-blend-mode:multiply">
<g style="mix-blend-mode:multiply">
<path d="M146.414 36.1694H151.427V34.2079C151.427 33.4226 151.739 32.6694 152.295 32.1141C152.851 31.5588 153.605 31.2468 154.391 31.2468C155.177 31.2468 155.931 31.5588 156.487 32.1141C157.042 32.6694 157.355 33.4226 157.355 34.2079V36.1694H162.367V30.3701H146.414V36.1694ZM159.598 32.2839C159.598 32.0089 159.707 31.7451 159.902 31.5506C160.097 31.3561 160.361 31.2468 160.636 31.2468C160.911 31.2468 161.175 31.3561 161.37 31.5506C161.565 31.7451 161.674 32.0089 161.674 32.2839V34.2079H159.598V32.2839ZM147.138 32.2839C147.138 32.0093 147.247 31.746 147.442 31.5518C147.636 31.3576 147.899 31.2485 148.174 31.2485C148.449 31.2485 148.713 31.3576 148.907 31.5518C149.101 31.746 149.211 32.0093 149.211 32.2839V34.2079H147.138V32.2839Z" fill="#514F67"/>
</g>
<g style="mix-blend-mode:multiply">
<path d="M147.124 25.1609H149.197V29.7731H149.907V17.4137H146.414V29.7731H147.124V25.1609ZM147.124 21.2788C147.124 21.0042 147.234 20.7408 147.428 20.5467C147.622 20.3525 147.886 20.2434 148.161 20.2434C148.436 20.2434 148.699 20.3525 148.893 20.5467C149.088 20.7408 149.197 21.0042 149.197 21.2788V23.2028H147.124V21.2788Z" fill="#514F67"/>
</g>
<g style="mix-blend-mode:multiply">
<path d="M158.878 17.4137V29.7731H159.598V25.1609H161.647V29.7731H162.354V17.4137H158.878ZM161.661 23.213H159.598V21.289C159.598 21.014 159.708 20.7502 159.902 20.5557C160.097 20.3612 160.361 20.252 160.636 20.252C160.912 20.252 161.176 20.3612 161.37 20.5557C161.565 20.7502 161.675 21.014 161.675 21.289L161.661 23.213Z" fill="#514F67"/>
</g>
<g style="mix-blend-mode:multiply">
<path d="M151.427 27.4568C151.438 27.3217 151.499 27.1957 151.599 27.1037C151.698 27.0118 151.829 26.9607 151.965 26.9607C152.1 26.9607 152.231 27.0118 152.331 27.1037C152.43 27.1957 152.492 27.3217 152.503 27.4568V29.7732H153.868V27.4568C153.879 27.3217 153.941 27.1957 154.04 27.1037C154.14 27.0118 154.271 26.9607 154.406 26.9607C154.542 26.9607 154.673 27.0118 154.772 27.1037C154.872 27.1957 154.933 27.3217 154.944 27.4568V29.7732H156.31V27.4568C156.31 27.3148 156.366 27.1786 156.467 27.0781C156.568 26.9777 156.704 26.9213 156.846 26.9213C156.988 26.9213 157.125 26.9777 157.225 27.0781C157.326 27.1786 157.382 27.3148 157.382 27.4568V29.7732H158.164V16.3153H150.648V29.7732H151.427V27.4568ZM151.427 23.179C151.427 22.3937 151.739 21.6405 152.295 21.0852C152.851 20.5299 153.605 20.2179 154.391 20.2179C155.177 20.2179 155.931 20.5299 156.487 21.0852C157.043 21.6405 157.355 22.3937 157.355 23.179V25.161H151.427V23.179Z" fill="#514F67"/>
</g>
</g>
<g style="mix-blend-mode:multiply">
<g style="mix-blend-mode:multiply">
<path d="M48.6618 24.5639C48.6634 25.5148 48.371 26.4429 47.8246 27.2214C47.2782 27.9999 46.5044 28.5909 45.6091 28.9134C45.9627 27.9674 46.1431 26.9656 46.1418 25.9558C46.1381 24.7114 45.8619 23.4829 45.3326 22.3564C44.8033 21.23 44.0336 20.233 43.0776 19.4352C42.1216 18.6375 41.0024 18.0585 39.7987 17.7387C38.5949 17.419 37.3357 17.3663 36.1093 17.5843C34.883 17.8024 33.7193 18.2859 32.6999 19.0009C31.6805 19.716 30.83 20.6452 30.2082 21.7235C29.5864 22.8017 29.2083 24.0028 29.1005 25.2426C28.9927 26.4823 29.1577 27.7306 29.5841 28.8998C28.7014 28.5705 27.9404 27.9799 27.4028 27.2069C26.8653 26.4339 26.5767 25.5154 26.5757 24.5742C26.4293 24.5752 26.285 24.609 26.1534 24.673C26.0218 24.737 25.9062 24.8297 25.8152 24.9443C25.7241 25.0588 25.6599 25.1922 25.6272 25.3348C25.5946 25.4774 25.5943 25.6255 25.6264 25.7681C25.8915 26.9831 26.5467 28.0783 27.4923 28.8868C28.4379 29.6954 29.6221 30.1732 30.8646 30.2473C30.9158 30.2473 32.1792 30.2473 32.7665 30.2473C32.8543 30.2468 32.9401 30.273 33.0127 30.3224C33.0852 30.3717 33.1411 30.4419 33.1729 30.5236L34.9861 35.0982H35.6451V32.6693H39.5993V35.0982H40.2242L42.0339 30.5236C42.0665 30.4424 42.1226 30.3728 42.195 30.3235C42.2673 30.2743 42.3527 30.2478 42.4403 30.2473H44.3149C45.5705 30.1856 46.7707 29.712 47.7294 28.8997C48.6881 28.0874 49.352 26.9819 49.6179 25.7545C49.6489 25.6116 49.6476 25.4635 49.614 25.3211C49.5805 25.1787 49.5155 25.0457 49.4239 24.9316C49.3323 24.8175 49.2163 24.7253 49.0845 24.6617C48.9526 24.5981 48.8082 24.5647 48.6618 24.5639ZM39.5959 32.3248H35.6451V31.3457H39.5993L39.5959 32.3248ZM43.7208 28.603C43.6618 28.7196 43.5714 28.8174 43.4598 28.8855C43.3482 28.9536 43.2198 28.9892 43.0891 28.9885H42.4061V27.2657C42.4144 27.1175 42.3924 26.9691 42.3413 26.8296C42.2902 26.6902 42.2112 26.5626 42.1091 26.4547C42.007 26.3468 41.8839 26.2609 41.7474 26.2021C41.6109 26.1434 41.4638 26.1131 41.3152 26.1131C41.1665 26.1131 41.0194 26.1434 40.8829 26.2021C40.7464 26.2609 40.6233 26.3468 40.5212 26.4547C40.4191 26.5626 40.3401 26.6902 40.289 26.8296C40.2379 26.9691 40.2159 27.1175 40.2242 27.2657V28.9885H38.691V25.5771C38.69 25.3371 38.6098 25.1041 38.4629 24.9141C38.316 24.7242 38.1105 24.5879 37.8783 24.5264C38.1348 24.4585 38.3578 24.2996 38.5056 24.0795C38.6535 23.8594 38.7161 23.593 38.6818 23.3302C38.6475 23.0673 38.5187 22.8259 38.3193 22.651C38.1199 22.476 37.8636 22.3796 37.5983 22.3796C37.3329 22.3796 37.0767 22.476 36.8773 22.651C36.6779 22.8259 36.549 23.0673 36.5147 23.3302C36.4805 23.593 36.5431 23.8594 36.691 24.0795C36.8388 24.2996 37.0618 24.4585 37.3183 24.5264C37.086 24.5879 36.8806 24.7242 36.7336 24.9141C36.5867 25.1041 36.5066 25.3371 36.5056 25.5771V28.9885H34.9861V27.2657C34.9861 26.9762 34.8709 26.6986 34.666 26.4938C34.4611 26.2891 34.1832 26.1741 33.8934 26.1741C33.6036 26.1741 33.3256 26.2891 33.1207 26.4938C32.9158 26.6986 32.8007 26.9762 32.8007 27.2657V28.9885H32.1177C31.9878 28.9893 31.8603 28.954 31.7493 28.8865C31.6383 28.819 31.5484 28.7221 31.4894 28.6064C30.964 27.5631 30.7147 26.4028 30.7651 25.236C30.8154 24.0692 31.1639 22.9347 31.7773 21.9404C32.3906 20.9462 33.2485 20.1253 34.2692 19.556C35.2899 18.9866 36.4395 18.6877 37.6085 18.6877C38.7776 18.6877 39.9271 18.9866 40.9478 19.556C41.9686 20.1253 42.8264 20.9462 43.4398 21.9404C44.0532 22.9347 44.4016 24.0692 44.452 25.236C44.5024 26.4028 44.253 27.5631 43.7276 28.6064L43.7208 28.603Z" fill="#514F67"/>
</g>
<g style="mix-blend-mode:multiply">
<path d="M33.8905 23.8373C33.6007 23.8373 33.3228 23.9523 33.1179 24.157C32.913 24.3617 32.7979 24.6394 32.7979 24.9289C32.7979 25.2184 32.913 25.4961 33.1179 25.7008C33.3228 25.9056 33.6007 26.0206 33.8905 26.0206C34.1803 26.0206 34.4583 25.9056 34.6632 25.7008C34.8681 25.4961 34.9832 25.2184 34.9832 24.9289C34.9832 24.6394 34.8681 24.3617 34.6632 24.157C34.4583 23.9523 34.1803 23.8373 33.8905 23.8373Z" fill="#514F67"/>
</g>
<g style="mix-blend-mode:multiply">
<path d="M41.3097 23.8373C41.1664 23.8373 41.0245 23.8655 40.8921 23.9204C40.7597 23.9753 40.6395 24.0558 40.5383 24.1572C40.4371 24.2586 40.3569 24.379 40.3024 24.5114C40.2479 24.6439 40.22 24.7857 40.2205 24.9289C40.2122 25.0772 40.2342 25.2256 40.2853 25.365C40.3364 25.5045 40.4154 25.6321 40.5175 25.74C40.6196 25.8478 40.7427 25.9338 40.8792 25.9925C41.0157 26.0513 41.1628 26.0816 41.3114 26.0816C41.4601 26.0816 41.6072 26.0513 41.7437 25.9925C41.8802 25.9338 42.0033 25.8478 42.1054 25.74C42.2075 25.6321 42.2865 25.5045 42.3376 25.365C42.3887 25.2256 42.4107 25.0772 42.4024 24.9289C42.4024 24.6394 42.2873 24.3617 42.0824 24.157C41.8775 23.9523 41.5995 23.8373 41.3097 23.8373Z" fill="#514F67"/>
</g>
<g style="mix-blend-mode:multiply">
<path d="M42.406 35.2688H33.0635V36.1694H42.406V35.2688Z" fill="#514F67"/>
</g>
</g>
<g style="mix-blend-mode:multiply">
<g style="mix-blend-mode:multiply">
<path d="M91.879 26.0683L88.058 20.5078L65.6611 36.1694H85.5755C85.3206 35.4626 85.1901 34.717 85.1896 33.9657C85.1896 30.5475 87.8906 27.5762 91.879 26.0683Z" fill="#F26764"/>
</g>
<g style="mix-blend-mode:multiply">
<path d="M97.8448 26.4436C91.753 26.4436 86.8154 29.9368 86.8154 34.2488C86.8166 34.904 86.9322 35.5539 87.1569 36.1694H108.54C108.763 35.5535 108.878 34.9038 108.881 34.2488C108.871 29.9368 103.94 26.4436 97.8448 26.4436Z" fill="#F26764"/>
</g>
</g>
</svg>
