<svg width="348" height="77" viewBox="0 0 348 77" fill="none" xmlns="http://www.w3.org/2000/svg">
<g style="mix-blend-mode:multiply">
<g style="mix-blend-mode:multiply">
<path d="M271.706 44.4747H212.021V47.2842H271.706V44.4747Z" fill="#EBB830"/>
</g>
<g style="mix-blend-mode:multiply">
<path d="M214.429 51.0032V51.8615V77H218.453V51.8615H222.902V77H226.926V51.8615H231.375V77H235.399V51.8615H239.848V77H243.872V51.8615H248.321V77H252.345V51.8615H256.794V77H260.818V51.8615H265.267V77H269.291V51.8615V48.3258H214.429V51.0032Z" fill="#EBB830"/>
</g>
</g>
<g style="mix-blend-mode:multiply">
<g style="mix-blend-mode:multiply">
<path d="M85.0957 77H137.514V50.6731H85.0957V77ZM99.6344 77H87.1298V66.9725C87.1011 66.1313 87.2416 65.2929 87.5429 64.5073C87.8441 63.7217 88.3001 63.0049 88.8835 62.3997C89.4669 61.7944 90.1659 61.3131 90.9387 60.9844C91.7116 60.6556 92.5426 60.4862 93.3821 60.4862C94.2217 60.4862 95.0526 60.6556 95.8255 60.9844C96.5984 61.3131 97.2973 61.7944 97.8807 62.3997C98.4642 63.0049 98.9201 63.7217 99.2214 64.5073C99.5227 65.2929 99.6631 66.1313 99.6344 66.9725V77ZM135.187 77H122.675V66.9725C122.675 65.3091 123.334 63.7138 124.508 62.5376C125.681 61.3614 127.272 60.7007 128.931 60.7007C130.591 60.7007 132.182 61.3614 133.355 62.5376C134.528 63.7138 135.187 65.3091 135.187 66.9725V77ZM117.554 77H105.049V59.4463C105.104 57.821 105.787 56.2809 106.954 55.1508C108.12 54.0207 109.679 53.389 111.301 53.389C112.923 53.389 114.482 54.0207 115.649 55.1508C116.815 56.2809 117.498 57.821 117.554 59.4463V77ZM137.514 48.5165H85.0957V46.3819H137.514V48.5165ZM137.514 18.4413H85.0957V16.2847H137.514V18.4413ZM134.163 44.46H88.4469V20.3192H134.163V44.46ZM90.1224 42.993H97.8857V25.6593H90.1224V42.993ZM98.7783 42.993H106.542V25.6593H98.7783V42.993ZM107.427 42.993H115.19V25.6593H107.427V42.993ZM116.083 42.993H123.846V25.6593H116.083V42.993ZM124.731 42.993H132.502V25.6593H124.753L124.731 42.993Z" fill="#00726F"/>
</g>
</g>
<g style="mix-blend-mode:multiply">
<g style="mix-blend-mode:multiply">
<path d="M266.526 34.0291H264.682V38.357H266.526V77H268.867V41.4378H274.384V77H276.718V38.357H278.569V34.0291H276.718H266.526Z" fill="#00726F"/>
</g>
<g style="mix-blend-mode:multiply">
<path d="M271.618 3.55986e-05C266.624 0.00780961 261.837 2.00207 258.309 5.54492C254.781 9.08778 252.799 13.8896 252.799 18.8961H290.503C290.503 16.4115 290.014 13.9514 289.065 11.6564C288.115 9.36143 286.724 7.27671 284.969 5.52157C283.215 3.76643 281.133 2.37532 278.842 1.42787C276.551 0.480411 274.096 -0.00478691 271.618 3.55986e-05Z" fill="#00726F"/>
</g>
<g style="mix-blend-mode:multiply">
<path d="M250.348 20.554C250.353 22.4533 250.614 24.3433 251.123 26.1729H292.098C292.592 24.3413 292.838 22.4513 292.83 20.554H250.348Z" fill="#00726F"/>
</g>
<g style="mix-blend-mode:multiply">
<path d="M286.018 27.5812H257.226V32.1805H286.018V27.5812Z" fill="#00726F"/>
</g>
</g>
<g style="mix-blend-mode:multiply">
<g style="mix-blend-mode:multiply">
<path d="M70.2714 34.3738V40.1614H65.8227V34.3738H59.8009V40.1614H55.3522V34.3738H49.3304V40.1614H44.8817V34.3738H38.8672V40.1614V40.5722V76.9999H76.2932V40.5722V40.1614V34.3738H70.2714Z" fill="#488ABB"/>
</g>
<g style="mix-blend-mode:multiply">
<path d="M31.4115 21.1187H26.9628V14.9203H20.941V21.1187H16.4923V14.9203H10.4705V21.1187H6.02182V14.9203H0V21.1187V21.8963V77H37.4333V21.1187V14.9203H31.4115V21.1187Z" fill="#488ABB"/>
</g>
</g>
<g style="mix-blend-mode:multiply">
<g style="mix-blend-mode:multiply">
<g style="mix-blend-mode:multiply">
<path d="M149.755 60.0991H123.875V61.2875H149.755V60.0991Z" fill="#F8A895"/>
</g>
<g style="mix-blend-mode:multiply">
<path d="M149.755 45.4503H123.875V46.6387H149.755V45.4503Z" fill="#F8A895"/>
</g>
<g style="mix-blend-mode:multiply">
<path d="M123.875 60.0991V76.9706H125.302V67.3612C125.302 66.9393 125.385 66.5215 125.546 66.1317C125.707 65.7419 125.943 65.3877 126.24 65.0893C126.538 64.791 126.891 64.5543 127.28 64.3928C127.669 64.2314 128.086 64.1483 128.507 64.1483C128.927 64.1483 129.344 64.2314 129.733 64.3928C130.122 64.5543 130.475 64.791 130.773 65.0893C131.07 65.3877 131.306 65.7419 131.467 66.1317C131.629 66.5215 131.711 66.9393 131.711 67.3612V76.9999H133.394V66.9724C133.394 66.2526 133.68 65.5622 134.187 65.0533C134.695 64.5443 135.384 64.2583 136.102 64.2583C136.82 64.2583 137.508 64.5443 138.016 65.0533C138.524 65.5622 138.809 66.2526 138.809 66.9724V76.9999H140.733V67.3612C140.733 66.5091 141.071 65.6919 141.672 65.0893C142.273 64.4868 143.088 64.1483 143.938 64.1483C144.788 64.1483 145.603 64.4868 146.204 65.0893C146.805 65.6919 147.143 66.5091 147.143 67.3612V76.9999H148.328V60.1285L123.875 60.0991Z" fill="#F8A895"/>
</g>
<g style="mix-blend-mode:multiply">
<path d="M123.875 59.6224H148.328V47.2476H123.875V59.6224ZM138.772 55.8153H133.358V51.2087C133.358 50.4889 133.643 49.7985 134.151 49.2895C134.658 48.7805 135.347 48.4946 136.065 48.4946C136.783 48.4946 137.472 48.7805 137.979 49.2895C138.487 49.7985 138.772 50.4889 138.772 51.2087V55.8153ZM146.653 55.8153H141.245V51.2087C141.226 50.8409 141.282 50.473 141.409 50.1275C141.537 49.782 141.733 49.4661 141.986 49.199C142.238 48.9319 142.543 48.7192 142.881 48.5738C143.218 48.4285 143.582 48.3535 143.949 48.3535C144.316 48.3535 144.68 48.4285 145.017 48.5738C145.355 48.7192 145.659 48.9319 145.912 49.199C146.165 49.4661 146.361 49.782 146.489 50.1275C146.616 50.473 146.672 50.8409 146.653 51.2087V55.8153ZM131.046 55.8153H125.638V51.2087C125.619 50.8409 125.675 50.473 125.802 50.1275C125.93 49.782 126.126 49.4661 126.379 49.199C126.631 48.9319 126.936 48.7192 127.274 48.5738C127.611 48.4285 127.975 48.3535 128.342 48.3535C128.709 48.3535 129.073 48.4285 129.41 48.5738C129.748 48.7192 130.052 48.9319 130.305 49.199C130.558 49.4661 130.754 49.782 130.882 50.1275C131.009 50.473 131.065 50.8409 131.046 51.2087V55.8153Z" fill="#F8A895"/>
</g>
</g>
<g style="mix-blend-mode:multiply">
<path d="M123.077 47.2474H116.572V76.9999H123.077V47.2474Z" fill="#F8A895"/>
</g>
<g style="mix-blend-mode:multiply">
<path d="M123.077 29.4664H116.572V39.0025H123.077V29.4664Z" fill="#F8A895"/>
</g>
<g style="mix-blend-mode:multiply">
<path d="M123.487 23.3706H116.17L119.828 6.39648L123.487 23.3706Z" fill="#F8A895"/>
</g>
<g style="mix-blend-mode:multiply">
<path d="M123.077 39.824H116.572V46.4332H123.077V39.824Z" fill="#F8A895"/>
</g>
<g style="mix-blend-mode:multiply">
<path d="M123.077 24.1849H116.572V28.6522H123.077V24.1849Z" fill="#F8A895"/>
</g>
</g>
<g style="mix-blend-mode:multiply">
<g style="mix-blend-mode:multiply">
<path d="M300.365 56.3289H274.5V57.6859H300.365V56.3289Z" fill="#514F67"/>
</g>
<g style="mix-blend-mode:multiply">
<path d="M274.5 77H277.185V61.2215H286.09V77H288.783V61.2215H298.038V77H300.373V58.2286H274.5V77Z" fill="#514F67"/>
</g>
<g style="mix-blend-mode:multiply">
<path d="M289.046 55.7786H300.373L303.329 53.3359H289.046H271.544L274.5 55.7786H289.046Z" fill="#514F67"/>
</g>
</g>
<g style="mix-blend-mode:multiply">
<g style="mix-blend-mode:multiply">
<path d="M298.165 65.6007V40.3375H283.092V65.6007H298.165ZM286.07 41.6946H295.194V47.2402H286.062L286.07 41.6946ZM286.07 50.3284H295.194V55.874H286.062L286.07 50.3284ZM286.07 58.9622H295.194V64.5078H286.062L286.07 58.9622Z" fill="#488ABB"/>
</g>
<g style="mix-blend-mode:multiply">
<path d="M318.995 65.6007H334.053V40.3375H318.995V65.6007ZM321.966 41.6946H331.09V47.2402H321.966V41.6946ZM321.966 50.3284H331.09V55.874H321.966V50.3284ZM321.966 58.9622H331.09V64.5078H321.966V58.9622Z" fill="#488ABB"/>
</g>
<g style="mix-blend-mode:multiply">
<path d="M317.679 40.3375H299.467V65.6007H317.679V40.3375ZM304.442 64.5444H302.247V58.9988H304.442V64.5444ZM304.442 55.8886H302.247V50.3357H304.442V55.8886ZM304.442 47.2768H302.247V41.7313H304.442V47.2768ZM307.801 64.5444H305.606V58.9988H307.801V64.5444ZM307.801 55.8886H305.606V50.3357H307.801V55.8886ZM307.801 47.2768H305.606V41.7313H307.801V47.2768ZM311.159 64.5444H308.964V58.9988H311.159V64.5444ZM311.159 55.8886H308.964V50.3357H311.159V55.8886ZM311.159 47.2768H308.964V41.7313H311.159V47.2768ZM314.51 64.5444H312.315V58.9988H314.51V64.5444ZM314.51 55.8886H312.315V50.3357H314.51V55.8886ZM314.51 47.2768H312.315V41.7313H314.51V47.2768Z" fill="#488ABB"/>
</g>
<g style="mix-blend-mode:multiply">
<path d="M298.157 37.5574L283.092 38.533L281.979 39.5819H298.157V37.5574Z" fill="#488ABB"/>
</g>
<g style="mix-blend-mode:multiply">
<path d="M334.061 38.533L318.995 37.5574V39.5819H335.173L334.061 38.533Z" fill="#488ABB"/>
</g>
<g style="mix-blend-mode:multiply">
<path d="M317.686 37.5574H299.475V39.5819H317.686V37.5574Z" fill="#488ABB"/>
</g>
<g style="mix-blend-mode:multiply">
<path d="M283.092 77H284.943V71.1316C284.942 70.7842 285.009 70.44 285.141 70.1188C285.273 69.7976 285.467 69.5056 285.712 69.2596C285.957 69.0136 286.247 68.8184 286.567 68.6853C286.887 68.5521 287.231 68.4835 287.577 68.4836H287.789C288.136 68.4835 288.479 68.5521 288.799 68.6853C289.119 68.8184 289.41 69.0136 289.654 69.2596C289.899 69.5056 290.093 69.7976 290.225 70.1188C290.357 70.44 290.424 70.7842 290.423 71.1316V77H291.887V71.1316C291.886 70.7842 291.953 70.44 292.085 70.1188C292.217 69.7976 292.411 69.5056 292.656 69.2596C292.9 69.0136 293.191 68.8184 293.511 68.6853C293.831 68.5521 294.174 68.4835 294.521 68.4836H294.733C295.08 68.4835 295.423 68.5521 295.743 68.6853C296.063 68.8184 296.353 69.0136 296.598 69.2596C296.843 69.5056 297.037 69.7976 297.169 70.1188C297.301 70.44 297.368 70.7842 297.367 71.1316V77H298.794V71.1316C298.793 70.7842 298.86 70.44 298.992 70.1188C299.124 69.7976 299.318 69.5056 299.563 69.2596C299.807 69.0136 300.098 68.8184 300.418 68.6853C300.738 68.5521 301.081 68.4835 301.428 68.4836H301.64C301.987 68.4835 302.33 68.5521 302.65 68.6853C302.97 68.8184 303.261 69.0136 303.505 69.2596C303.75 69.5056 303.944 69.7976 304.076 70.1188C304.208 70.44 304.275 70.7842 304.274 71.1316V77H305.738V71.1316C305.737 70.7842 305.804 70.44 305.936 70.1188C306.068 69.7976 306.262 69.5056 306.507 69.2596C306.751 69.0136 307.042 68.8184 307.362 68.6853C307.682 68.5521 308.025 68.4835 308.372 68.4836H308.584C308.93 68.4835 309.274 68.5521 309.594 68.6853C309.914 68.8184 310.204 69.0136 310.449 69.2596C310.694 69.5056 310.888 69.7976 311.02 70.1188C311.152 70.44 311.219 70.7842 311.218 71.1316V77H312.681V71.1316C312.68 70.7842 312.748 70.44 312.88 70.1188C313.012 69.7976 313.206 69.5056 313.45 69.2596C313.695 69.0136 313.986 68.8184 314.306 68.6853C314.626 68.5521 314.969 68.4835 315.315 68.4836H315.528C315.874 68.4835 316.217 68.5521 316.537 68.6853C316.857 68.8184 317.148 69.0136 317.393 69.2596C317.637 69.5056 317.831 69.7976 317.963 70.1188C318.095 70.44 318.163 70.7842 318.162 71.1316V77H319.625V71.1316C319.624 70.7842 319.692 70.44 319.823 70.1188C319.955 69.7976 320.149 69.5056 320.394 69.2596C320.639 69.0136 320.929 68.8184 321.25 68.6853C321.57 68.5521 321.913 68.4835 322.259 68.4836H322.31C322.657 68.4835 323 68.5521 323.32 68.6853C323.64 68.8184 323.931 69.0136 324.176 69.2596C324.42 69.5056 324.614 69.7976 324.746 70.1188C324.878 70.44 324.945 70.7842 324.944 71.1316V77H326.408V71.1316C326.407 70.7842 326.474 70.44 326.606 70.1188C326.738 69.7976 326.932 69.5056 327.177 69.2596C327.421 69.0136 327.712 68.8184 328.032 68.6853C328.352 68.5521 328.695 68.4835 329.042 68.4836H329.254C329.601 68.4835 329.944 68.5521 330.264 68.6853C330.584 68.8184 330.875 69.0136 331.119 69.2596C331.364 69.5056 331.558 69.7976 331.69 70.1188C331.822 70.44 331.889 70.7842 331.888 71.1316V77H334.083V66.4663H283.092V77Z" fill="#488ABB"/>
</g>
</g>
<g style="mix-blend-mode:multiply">
<g style="mix-blend-mode:multiply">
<path d="M313.815 77H324.557V72.7821C324.557 71.0935 325.226 69.4739 326.417 68.2799C327.608 67.0858 329.223 66.415 330.908 66.415C332.592 66.415 334.208 67.0858 335.399 68.2799C336.59 69.4739 337.259 71.0935 337.259 72.7821V77H348V64.5298H313.815V77ZM342.066 68.645C342.066 68.0535 342.3 67.4863 342.717 67.0681C343.135 66.6499 343.7 66.415 344.29 66.415C344.88 66.415 345.446 66.6499 345.863 67.0681C346.28 67.4863 346.515 68.0535 346.515 68.645V72.7821H342.066V68.645ZM315.367 68.645C315.367 68.0545 315.601 67.4882 316.017 67.0707C316.433 66.6532 316.998 66.4187 317.587 66.4187C318.176 66.4187 318.741 66.6532 319.158 67.0707C319.574 67.4882 319.808 68.0545 319.808 68.645V72.7821H315.367V68.645Z" fill="#514F67"/>
</g>
<g style="mix-blend-mode:multiply">
<path d="M315.337 53.3286H319.779V63.2461H321.301V36.6698H313.815V63.2461H315.337V53.3286ZM315.337 44.9808C315.337 44.3904 315.571 43.8241 315.988 43.4066C316.404 42.9891 316.969 42.7545 317.558 42.7545C318.147 42.7545 318.712 42.9891 319.128 43.4066C319.545 43.8241 319.779 44.3904 319.779 44.9808V49.118H315.337V44.9808Z" fill="#514F67"/>
</g>
<g style="mix-blend-mode:multiply">
<path d="M340.522 36.6698V63.2461H342.066V53.3286H346.456V63.2461H347.971V36.6698H340.522ZM346.486 49.14H342.066V45.0028C342.066 44.4114 342.301 43.8442 342.718 43.426C343.135 43.0078 343.701 42.7729 344.291 42.7729C344.881 42.7729 345.446 43.0078 345.863 43.426C346.281 43.8442 346.515 44.4114 346.515 45.0028L346.486 49.14Z" fill="#514F67"/>
</g>
<g style="mix-blend-mode:multiply">
<path d="M324.557 58.2654C324.58 57.9748 324.712 57.7037 324.925 57.506C325.139 57.3083 325.419 57.1985 325.709 57.1985C326 57.1985 326.28 57.3083 326.494 57.506C326.707 57.7037 326.839 57.9748 326.862 58.2654V63.2461H329.789V58.2654C329.812 57.9748 329.943 57.7037 330.157 57.506C330.37 57.3083 330.65 57.1985 330.941 57.1985C331.232 57.1985 331.512 57.3083 331.725 57.506C331.939 57.7037 332.07 57.9748 332.093 58.2654V63.2461H335.02V58.2654C335.02 57.9599 335.141 57.667 335.357 57.451C335.572 57.235 335.864 57.1137 336.169 57.1137C336.474 57.1137 336.766 57.235 336.981 57.451C337.197 57.667 337.318 57.9599 337.318 58.2654V63.2461H338.993V34.3079H322.889V63.2461H324.557V58.2654ZM324.557 49.0667C324.557 47.3781 325.226 45.7585 326.417 44.5645C327.608 43.3704 329.224 42.6996 330.908 42.6996C332.592 42.6996 334.208 43.3704 335.399 44.5645C336.59 45.7585 337.259 47.3781 337.259 49.0667V53.3286H324.557V49.0667Z" fill="#514F67"/>
</g>
</g>
<g style="mix-blend-mode:multiply">
<g style="mix-blend-mode:multiply">
<path d="M104.354 52.0449C104.358 54.0895 103.731 56.0852 102.56 57.7592C101.39 59.4333 99.7316 60.7039 97.8131 61.3976C98.5708 59.3634 98.9575 57.2091 98.9546 55.0377C98.9467 52.362 98.3549 49.7203 97.2207 47.2982C96.0864 44.876 94.4371 42.7321 92.3886 41.0168C90.3401 39.3014 87.9421 38.0563 85.3626 37.3688C82.7832 36.6812 80.0849 36.5679 77.4572 37.0368C74.8294 37.5056 72.3359 38.5453 70.1515 40.0828C67.967 41.6204 66.1447 43.6185 64.8123 45.9371C63.48 48.2556 62.6698 50.8384 62.4388 53.5041C62.2077 56.1699 62.5614 58.854 63.4749 61.3682C61.5836 60.6602 59.953 59.3902 58.801 57.7281C57.6491 56.0659 57.0308 54.0908 57.0287 52.0669C56.715 52.0691 56.4058 52.1417 56.1237 52.2794C55.8417 52.4171 55.5941 52.6164 55.399 52.8627C55.2038 53.109 55.0662 53.3959 54.9963 53.7025C54.9263 54.0091 54.9257 54.3275 54.9946 54.6343C55.5625 57.2468 56.9665 59.6017 58.9927 61.3404C61.0189 63.0791 63.5564 64.1063 66.2187 64.2657C66.3285 64.2657 69.0357 64.2657 70.2943 64.2657C70.4823 64.2648 70.6662 64.3211 70.8217 64.4272C70.9771 64.5333 71.0969 64.6841 71.165 64.8599L75.0502 74.6967H76.4624V69.4739H84.9354V74.6967H86.2744L90.1523 64.8599C90.2221 64.6853 90.3423 64.5355 90.4974 64.4297C90.6524 64.3239 90.8355 64.2668 91.0231 64.2657H95.0401C97.7305 64.1331 100.302 63.1146 102.356 61.368C104.411 59.6214 105.833 57.2443 106.403 54.605C106.47 54.2976 106.467 53.9792 106.395 53.6731C106.323 53.3669 106.184 53.0807 105.987 52.8354C105.791 52.5901 105.543 52.3918 105.26 52.2551C104.978 52.1183 104.668 52.0465 104.354 52.0449ZM84.9281 68.733H76.4624V66.6277H84.9354L84.9281 68.733ZM93.7669 60.73C93.6404 60.9807 93.4467 61.191 93.2076 61.3374C92.9685 61.4838 92.6934 61.5606 92.4133 61.5589H90.9499V57.8545C90.9677 57.5357 90.9204 57.2166 90.811 56.9168C90.7015 56.6169 90.5322 56.3426 90.3134 56.1106C90.0946 55.8786 89.8308 55.6938 89.5383 55.5675C89.2458 55.4412 88.9306 55.376 88.6121 55.376C88.2936 55.376 87.9785 55.4412 87.686 55.5675C87.3934 55.6938 87.1297 55.8786 86.9109 56.1106C86.6921 56.3426 86.5227 56.6169 86.4133 56.9168C86.3039 57.2166 86.2566 57.5357 86.2744 57.8545V61.5589H82.9891V54.2235C82.987 53.7074 82.8152 53.2063 82.5004 52.7979C82.1856 52.3895 81.7453 52.0965 81.2477 51.9642C81.7973 51.8181 82.2751 51.4766 82.5919 51.0032C82.9087 50.5299 83.0429 49.9572 82.9695 49.3919C82.896 48.8267 82.6199 48.3076 82.1927 47.9315C81.7654 47.5553 81.2163 47.3479 80.6477 47.3479C80.0791 47.3479 79.5299 47.5553 79.1027 47.9315C78.6755 48.3076 78.3994 48.8267 78.3259 49.3919C78.2524 49.9572 78.3866 50.5299 78.7035 51.0032C79.0203 51.4766 79.4981 51.8181 80.0477 51.9642C79.55 52.0965 79.1097 52.3895 78.7949 52.7979C78.4801 53.2063 78.3084 53.7074 78.3063 54.2235V61.5589H75.0502V57.8545C75.0502 57.232 74.8036 56.6349 74.3645 56.1947C73.9254 55.7545 73.3298 55.5072 72.7088 55.5072C72.0878 55.5072 71.4923 55.7545 71.0532 56.1947C70.6141 56.6349 70.3674 57.232 70.3674 57.8545V61.5589H68.904C68.6257 61.5607 68.3523 61.4848 68.1146 61.3397C67.8768 61.1946 67.684 60.9861 67.5577 60.7374C66.4319 58.494 65.8976 55.999 66.0056 53.49C66.1135 50.981 66.8602 48.5415 68.1745 46.4036C69.4888 44.2657 71.327 42.5006 73.5142 41.2763C75.7013 40.0521 78.1646 39.4093 80.6696 39.4093C83.1746 39.4093 85.6379 40.0521 87.8251 41.2763C90.0122 42.5006 91.8504 44.2657 93.1648 46.4036C94.4791 48.5415 95.2257 50.981 95.3337 53.49C95.4417 55.999 94.9073 58.494 93.7815 60.7374L93.7669 60.73Z" fill="#514F67"/>
</g>
<g style="mix-blend-mode:multiply">
<path d="M72.7017 50.4824C72.0808 50.4824 71.4852 50.7297 71.0461 51.1699C70.607 51.6102 70.3604 52.2072 70.3604 52.8298C70.3604 53.4523 70.607 54.0494 71.0461 54.4896C71.4852 54.9298 72.0808 55.1771 72.7017 55.1771C73.3227 55.1771 73.9183 54.9298 74.3574 54.4896C74.7965 54.0494 75.0432 53.4523 75.0432 52.8298C75.0432 52.2072 74.7965 51.6102 74.3574 51.1699C73.9183 50.7297 73.3227 50.4824 72.7017 50.4824Z" fill="#514F67"/>
</g>
<g style="mix-blend-mode:multiply">
<path d="M88.6014 50.4824C88.2943 50.4824 87.9902 50.5432 87.7065 50.6613C87.4228 50.7793 87.1652 50.9523 86.9484 51.1704C86.7315 51.3885 86.5598 51.6473 86.4429 51.932C86.326 52.2168 86.2664 52.5219 86.2673 52.8298C86.2495 53.1486 86.2968 53.4677 86.4062 53.7675C86.5157 54.0674 86.685 54.3417 86.9038 54.5737C87.1227 54.8057 87.3864 54.9905 87.6789 55.1168C87.9714 55.2431 88.2866 55.3083 88.6051 55.3083C88.9236 55.3083 89.2387 55.2431 89.5312 55.1168C89.8238 54.9905 90.0875 54.8057 90.3063 54.5737C90.5252 54.3417 90.6945 54.0674 90.8039 53.7675C90.9134 53.4677 90.9606 53.1486 90.9428 52.8298C90.9428 52.2072 90.6962 51.6102 90.2571 51.1699C89.818 50.7297 89.2224 50.4824 88.6014 50.4824Z" fill="#514F67"/>
</g>
<g style="mix-blend-mode:multiply">
<path d="M90.9497 75.0635H70.9307V77H90.9497V75.0635Z" fill="#514F67"/>
</g>
</g>
<g style="mix-blend-mode:multiply">
<g style="mix-blend-mode:multiply">
<path d="M196.958 55.2797L188.77 43.323L140.778 76.9999H183.451C182.904 75.48 182.625 73.8768 182.624 72.2613C182.624 64.9112 188.411 58.522 196.958 55.2797Z" fill="#F26764"/>
</g>
<g style="mix-blend-mode:multiply">
<path d="M209.74 56.0867C196.687 56.0867 186.106 63.5981 186.106 72.8701C186.109 74.2789 186.357 75.6765 186.838 77H232.657C233.135 75.6756 233.382 74.2786 233.388 72.8701C233.366 63.5981 222.801 56.0867 209.74 56.0867Z" fill="#F26764"/>
</g>
</g>
</svg>
