<svg width="42" height="42" viewBox="0 0 42 42" fill="none" xmlns="http://www.w3.org/2000/svg">
<path d="M42 21C42 18.2422 41.4568 15.5115 40.4015 12.9636C39.3461 10.4158 37.7993 8.10079 35.8492 6.15076C33.8992 4.20073 31.5842 2.65388 29.0364 1.59853C26.4885 0.543181 23.7578 0 21 0C18.2422 0 15.5115 0.543181 12.9636 1.59853C10.4158 2.65388 8.10079 4.20073 6.15076 6.15076C4.20073 8.10079 2.65388 10.4158 1.59853 12.9636C0.543181 15.5115 -4.10938e-08 18.2422 0 21C8.29927e-08 26.5695 2.21249 31.911 6.15076 35.8492C10.089 39.7875 15.4305 42 21 42C26.5695 42 31.911 39.7875 35.8492 35.8492C39.7875 31.911 42 26.5695 42 21ZM3.5 21C3.5 16.3587 5.34374 11.9075 8.62563 8.62563C11.9075 5.34374 16.3587 3.5 21 3.5C25.6413 3.5 30.0925 5.34374 33.3744 8.62563C36.6563 11.9075 38.5 16.3587 38.5 21C38.5 25.6413 36.6563 30.0925 33.3744 33.3744C30.0925 36.6563 25.6413 38.5 21 38.5C16.3587 38.5 11.9075 36.6563 8.62563 33.3744C5.34374 30.0925 3.5 25.6413 3.5 21ZM17.5 16.625C17.5 16.9697 17.4321 17.3111 17.3002 17.6295C17.1683 17.948 16.9749 18.2374 16.7312 18.4812C16.4874 18.7249 16.198 18.9183 15.8795 19.0502C15.5611 19.1821 15.2197 19.25 14.875 19.25C14.5303 19.25 14.1889 19.1821 13.8705 19.0502C13.552 18.9183 13.2626 18.7249 13.0188 18.4812C12.7751 18.2374 12.5817 17.948 12.4498 17.6295C12.3179 17.3111 12.25 16.9697 12.25 16.625C12.25 15.9288 12.5266 15.2611 13.0188 14.7688C13.5111 14.2766 14.1788 14 14.875 14C15.5712 14 16.2389 14.2766 16.7312 14.7688C17.2234 15.2611 17.5 15.9288 17.5 16.625ZM29.75 16.625C29.75 17.3212 29.4734 17.9889 28.9812 18.4812C28.4889 18.9734 27.8212 19.25 27.125 19.25C26.4288 19.25 25.7611 18.9734 25.2688 18.4812C24.7766 17.9889 24.5 17.3212 24.5 16.625C24.5 15.9288 24.7766 15.2611 25.2688 14.7688C25.7611 14.2766 26.4288 14 27.125 14C27.8212 14 28.4889 14.2766 28.9812 14.7688C29.4734 15.2611 29.75 15.9288 29.75 16.625ZM14.462 30.877C17.6995 27.041 24.297 27.041 27.538 30.877C27.6826 31.063 27.8633 31.218 28.0693 31.3325C28.2752 31.447 28.5022 31.5187 28.7366 31.5434C28.9709 31.568 29.2078 31.5451 29.4331 31.476C29.6584 31.4068 29.8674 31.2929 30.0475 31.141C30.2277 30.9892 30.3754 30.8025 30.4816 30.5921C30.5879 30.3818 30.6506 30.1522 30.6659 29.917C30.6813 29.6819 30.649 29.4461 30.571 29.2237C30.493 29.0013 30.3709 28.797 30.212 28.623C25.5745 23.128 16.422 23.128 11.788 28.623C11.6291 28.797 11.507 29.0013 11.429 29.2237C11.351 29.4461 11.3187 29.6819 11.3341 29.917C11.3494 30.1522 11.4121 30.3818 11.5184 30.5921C11.6246 30.8025 11.7723 30.9892 11.9525 31.141C12.1326 31.2929 12.3416 31.4068 12.5669 31.476C12.7922 31.5451 13.0291 31.568 13.2634 31.5434C13.4978 31.5187 13.7248 31.447 13.9307 31.3325C14.1367 31.218 14.3174 31.063 14.462 30.877Z" fill="#252525"/>
</svg>
