<svg width="19" height="18" viewBox="0 0 19 18" fill="none" xmlns="http://www.w3.org/2000/svg">
<path fill-rule="evenodd" clip-rule="evenodd" d="M8.375 16.5C8.375 17.1213 8.87868 17.625 9.5 17.625C10.1213 17.625 10.625 17.1213 10.625 16.5L10.625 10.125H17C17.6213 10.125 18.125 9.62132 18.125 9C18.125 8.37868 17.6213 7.875 17 7.875H10.625L10.625 1.5C10.625 0.87868 10.1213 0.375 9.5 0.375C8.87868 0.375 8.375 0.87868 8.375 1.5L8.375 7.875H2C1.37868 7.875 0.875 8.37868 0.875 9C0.875 9.62132 1.37868 10.125 2 10.125H8.375L8.375 16.5Z" fill="#656564"/>
</svg>
